<?xml version="1.0" standalone="no"?>
<!DOCTYPE svg PUBLIC "-//W3C//DTD SVG 20010904//EN"
 "http://www.w3.org/TR/2001/REC-SVG-20010904/DTD/svg10.dtd">
<svg version="1.0" xmlns="http://www.w3.org/2000/svg"
 width="809.000000pt" height="809.000000pt" viewBox="0 0 809.000000 809.000000"
 preserveAspectRatio="xMidYMid meet">
<metadata>
Created by potrace 1.14, written by Peter Selinger 2001-2017
</metadata>
<g transform="translate(0.000000,809.000000) scale(0.100000,-0.100000)"
fill="#000000" stroke="none">
<path d="M4183 7299 c-33 -12 -52 -57 -46 -109 14 -143 210 -385 543 -670 107
-91 122 -104 195 -165 33 -27 84 -72 114 -100 355 -332 602 -652 782 -1015 52
-106 124 -304 115 -319 -3 -5 -17 -12 -30 -15 -27 -7 -153 -66 -206 -97 -66
-39 -145 -103 -209 -170 l-64 -66 -61 76 c-92 115 -356 377 -486 481 -405 325
-902 548 -1347 605 -26 4 -75 10 -107 14 -145 19 -435 7 -561 -24 -57 -14
-233 -105 -253 -130 -16 -21 -19 -32 -12 -57 20 -68 121 -153 240 -203 181
-75 312 -150 420 -239 25 -20 169 -160 320 -309 320 -317 358 -351 466 -423
149 -98 395 -195 579 -228 141 -26 196 -35 255 -41 84 -9 168 -14 243 -15 l68
0 -16 -30 c-58 -111 -278 -180 -564 -174 -99 2 -99 2 -152 42 -137 102 -421
223 -650 276 -22 5 -31 18 -54 83 -86 245 -276 501 -415 559 -35 15 -158 49
-215 59 -131 23 -364 23 -488 -1 -22 -4 -46 -9 -102 -20 -38 -7 -199 -55 -204
-60 -3 -2 9 -19 27 -37 50 -52 111 -200 138 -337 3 -14 9 -41 14 -60 5 -19 11
-53 14 -75 10 -68 38 -198 48 -225 9 -23 4 -30 -49 -77 -31 -29 -63 -53 -69
-53 -6 0 -11 23 -13 52 -2 59 -32 121 -65 135 -53 23 -162 -6 -191 -51 -19
-28 -14 -84 9 -121 13 -20 11 -20 -68 -17 -62 3 -94 -1 -136 -16 -314 -113
-631 -212 -765 -238 -22 -4 -44 -8 -50 -9 -66 -15 -131 -26 -180 -31 -33 -3
-69 -8 -80 -10 -35 -7 -257 -5 -345 3 -250 22 -430 -5 -494 -76 -28 -31 -17
-98 29 -167 57 -87 231 -254 298 -287 105 -51 166 -61 352 -61 140 1 197 6
320 28 83 15 155 29 160 30 6 2 28 6 50 10 22 5 65 14 95 21 105 26 245 41
253 29 2 -5 -2 -40 -10 -79 -16 -74 -22 -279 -11 -355 21 -138 93 -308 180
-429 115 -157 316 -326 483 -406 134 -64 214 -79 422 -78 l122 0 -35 -46
c-155 -202 -379 -360 -662 -467 -148 -56 -202 -108 -202 -195 0 -47 53 -148
109 -206 53 -56 111 -80 247 -104 63 -11 214 -8 279 6 168 35 370 133 534 260
97 75 128 103 241 216 l95 97 40 -15 c248 -88 520 -102 729 -36 178 55 309
135 436 265 60 62 69 68 125 77 33 6 72 14 88 16 86 16 346 118 367 144 3 4
28 21 55 38 28 18 65 46 83 63 28 25 49 33 92 32 215 0 631 -148 1141 -404
145 -73 251 -120 275 -123 21 -2 73 -6 114 -10 41 -3 82 -8 90 -10 8 -2 51 -7
95 -10 44 -3 111 -10 149 -14 169 -18 317 4 402 62 63 42 87 84 86 150 -1 164
-129 237 -427 242 -71 1 -111 7 -139 19 -56 25 -233 77 -313 92 -49 9 -64 23
-122 111 -77 118 -163 218 -323 374 l-130 127 -23 83 c-13 46 -23 84 -22 85 1
1 36 5 77 9 41 4 84 9 95 12 11 2 34 7 50 10 127 22 342 122 467 216 70 53
194 172 238 229 11 14 35 30 53 33 81 18 351 162 426 229 25 23 96 66 156 96
120 59 166 88 207 133 98 105 98 294 -1 351 -60 35 -200 16 -265 -35 -42 -33
-178 -97 -242 -113 -78 -20 -84 -20 -79 2 2 9 7 35 12 57 14 60 8 173 -12 240
-27 96 -75 174 -151 251 l-71 71 8 56 c8 62 3 115 -13 135 -24 28 -94 5 -172
-57 l-38 -31 -39 37 c-104 99 -291 209 -419 247 -95 29 -241 40 -317 24 l-31
-7 18 52 c31 87 39 156 36 292 -4 150 -28 280 -86 455 -71 216 -194 476 -321
679 -33 51 -59 95 -59 97 0 2 -32 49 -71 103 -218 305 -550 507 -992 605 -122
27 -140 30 -267 46 -47 6 -98 15 -115 20 -45 14 -117 19 -142 9z"/>
</g>
</svg>
