<?xml version="1.0" standalone="no"?>
<!DOCTYPE svg PUBLIC "-//W3C//DTD SVG 1.1//EN" "http://www.w3.org/Graphics/SVG/1.1/DTD/svg11.dtd" >
<svg>
<metadata>
Created by FontForge 20110222 at Thu Aug  4 11:09:00 2011
 By www-data
Created by gluk (gluksza@wp.pl | www.glukfonts.pl) with FontForge.

This Font Software is licensed under the SIL Open Font License, Version 1.1.

Use [ and ] at end of words for ornaments.
</metadata>
<defs>
<font id="odstemplik" horiz-adv-x="436" >
  <font-face 
    font-family="odstemplik"
    font-weight="500"
    font-style="italic"
    font-stretch="normal"
    units-per-em="1000"
    panose-1="2 0 5 3 0 0 0 0 0 0"
    ascent="700"
    descent="-300"
    x-height="300"
    cap-height="605"
    bbox="-238 -312 886 747"
    underline-thickness="12"
    underline-position="-180"
    slope="-11"
    stemh="20"
    stemv="60"
    unicode-range="U+0020-E148"
  />
    <missing-glyph />
    <glyph glyph-name="space" unicode=" " horiz-adv-x="300" 
 />
    <glyph glyph-name="exclam" unicode="!" horiz-adv-x="260" 
d="M142 42c14 0 24 -11 24 -25c0 -20 -20 -35 -36 -35c-14 0 -24 11 -24 25c0 20 20 35 36 35zM176 576h66c-17 -86 -93 -306 -93 -404v-18h-18v12c0 107 29 330 45 410z" />
    <glyph glyph-name="quotedbl" unicode="&#x22;" horiz-adv-x="227" 
d="M223 577c16 0 26 -17 26 -32c0 -4 -1 -7 -2 -9l-45 -81l-24 7c16 62 10 74 13 92c2 10 18 23 32 23zM139 577c16 0 26 -17 26 -32c0 -4 -1 -7 -2 -9l-45 -81l-24 7c16 62 10 74 13 92c2 10 18 23 32 23z" />
    <glyph glyph-name="numbersign" unicode="#" horiz-adv-x="444" 
d="M287 264l19 94h24c-2 -12 -9 -49 -18 -94h96l-5 -24h-96l-18 -96h101l-5 -24h-101l-16 -82h-24c2 11 7 43 15 82h-95l-16 -82h-24c2 11 7 43 15 82h-79l5 24h79l19 96h-85l5 24h84l19 94h24c-2 -12 -9 -49 -18 -94h95zM283 240h-96l-18 -96h95z" />
    <glyph glyph-name="dollar" unicode="$" horiz-adv-x="468" 
d="M302 576h24l-7 -34c67 -11 105 -60 105 -103c0 -11 -3 -23 -8 -33l-16 8c4 6 6 14 6 24c0 34 -30 76 -90 86l-41 -209c65 -45 147 -86 147 -181c0 -90 -101 -140 -209 -140l-7 -38h-24l8 39c-91 8 -142 60 -142 109c0 10 2 19 6 28l16 -8c-2 -5 -4 -12 -4 -20
c0 -36 40 -84 127 -91l48 250c-102 71 -105 127 -105 160c0 79 84 121 160 121zM263 249l-46 -237c72 0 145 36 145 119c0 54 -47 84 -99 118zM254 330l38 196c-78 0 -97 -61 -97 -98c0 -43 25 -72 59 -98z" />
    <glyph glyph-name="percent" unicode="%" horiz-adv-x="632" 
d="M519 242c61 0 97 -45 97 -101c0 -77 -66 -147 -139 -147c-60 0 -101 45 -101 103c0 76 71 145 143 145zM477 12c83 0 99 107 99 148c0 37 -13 64 -57 64c-82 0 -103 -98 -103 -142c0 -41 18 -70 61 -70zM483 432c-28 -16 -58 -28 -95 -28c-27 0 -56 4 -90 16
c8 -15 12 -33 12 -52c0 -82 -68 -148 -139 -148c-60 0 -101 45 -101 103c0 76 71 145 143 145c24 0 44 -7 59 -18c45 -24 84 -34 116 -34c48 0 89 26 122 52c15 12 29 21 34 21c2 0 2 -1 2 -3c0 -5 -6 -16 -21 -37l-366 -499l-18 14l343 467zM171 238c83 0 99 107 99 148
c0 37 -13 64 -57 64c-82 0 -103 -98 -103 -142c0 -41 18 -70 61 -70z" />
    <glyph glyph-name="ampersand" unicode="&#x26;" horiz-adv-x="633" 
d="M594 110c-36 -72 -80 -116 -136 -116c-58 0 -96 44 -96 95c-31 -65 -81 -95 -145 -95c-80 0 -157 60 -157 144c0 75 59 132 148 150c-34 14 -54 41 -54 84c0 102 111 174 203 174c65 0 121 -34 121 -128c0 -33 -8 -72 -15 -112l136 10v-34l-141 -3
c-36 -180 -37 -176 -37 -195c0 -36 14 -72 46 -72c23 0 74 19 116 102zM272 276c-148 0 -152 -113 -152 -147c0 -76 45 -117 100 -117c78 0 137 58 157 165l20 101zM273 294l129 8c15 71 26 122 26 158c0 48 -32 68 -72 68c-54 0 -123 -40 -139 -127c-5 -26 -8 -46 -8 -61
c0 -33 16 -45 64 -46z" />
    <glyph glyph-name="quotesingle" unicode="'" horiz-adv-x="143" 
d="M139 577c16 0 26 -17 26 -32c0 -4 -1 -7 -2 -9l-45 -81l-24 7c16 62 10 74 13 92c2 10 18 23 32 23z" />
    <glyph glyph-name="parenleft" unicode="(" horiz-adv-x="334" 
d="M200 -228c-81 16 -117 145 -117 284c0 49 4 99 13 146c31 162 150 398 254 398c4 0 8 0 12 -1l-4 -18c-3 1 -7 1 -10 1c-91 0 -163 -233 -192 -385c-12 -68 -22 -147 -22 -217c0 -99 18 -181 69 -190z" />
    <glyph glyph-name="parenright" unicode=")" horiz-adv-x="329" 
d="M199 600c81 -16 117 -145 117 -283c0 -49 -4 -99 -13 -146c-31 -162 -150 -398 -254 -398c-4 0 -8 0 -12 1l4 18c3 -1 7 -1 10 -1c91 0 163 233 192 385c12 67 21 145 21 215c0 99 -18 182 -69 191z" />
    <glyph glyph-name="asterisk" unicode="*" horiz-adv-x="325" 
d="M224 392c18 -14 36 -33 56 -58c8 -10 14 -15 14 -19c0 -5 -1 -8 -4 -8c-38 1 -36 7 -49 38c-13 30 -24 34 -31 42c-8 -21 -19 -43 -37 -70c-9 -14 -11 -21 -19 -21c-7 0 -8 27 -8 27c0 15 9 19 27 34c24 21 26 38 29 42c-22 1 -47 6 -78 14c-15 4 -26 3 -26 13
c0 4 21 16 31 16c9 0 16 -6 32 -16c26 -15 45 -15 50 -16c-6 21 -9 47 -10 79c-1 8 -2 13 -2 17c0 9 8 12 9 12c0 0 23 -14 23 -31c0 -11 -9 -33 -9 -55c0 -13 1 -22 2 -26c18 13 42 24 71 36c11 4 17 8 21 8c2 0 9 -3 9 -7c0 -36 -46 -34 -52 -35c-30 -3 -44 -14 -49 -16z
" />
    <glyph glyph-name="plus" unicode="+" horiz-adv-x="492" 
d="M265 244c13 68 26 135 30 154h24c-3 -17 -16 -85 -30 -154h155l-5 -24h-154l-28 -142h-24l27 142h-146l5 24h146z" />
    <glyph glyph-name="comma" unicode="," horiz-adv-x="188" 
d="M72 42c16 0 25 -12 25 -30c0 -37 -43 -69 -49 -96l-12 1c14 43 29 50 29 62c0 3 -3 3 -5 3c-16 0 -25 11 -25 24c0 21 21 36 37 36z" />
    <glyph glyph-name="hyphen" unicode="-" horiz-adv-x="432" 
d="M379 220h-265l5 24h265z" />
    <glyph glyph-name="period" unicode="." horiz-adv-x="188" 
d="M72 42c14 0 24 -11 24 -25c0 -20 -20 -35 -36 -35c-14 0 -24 11 -24 25c0 20 20 35 36 35z" />
    <glyph glyph-name="slash" unicode="/" horiz-adv-x="534" 
d="M575 575l-533 -727l-18 13l533 727z" />
    <glyph glyph-name="zero" unicode="0" horiz-adv-x="426" 
d="M199 -6c-88 0 -152 91 -152 182c0 118 97 254 211 254c88 0 152 -91 152 -182c0 -118 -97 -254 -211 -254zM258 412c-127 0 -153 -203 -153 -269c0 -60 28 -131 94 -131c127 0 153 203 153 269c0 60 -28 131 -94 131z" />
    <glyph glyph-name="one" unicode="1" horiz-adv-x="250" 
d="M80 3c22 137 44 297 64 338c11 24 19 38 32 53c-32 -14 -54 -30 -87 -40l-2 12c44 14 107 68 134 68c17 0 30 -14 30 -14c-13 -2 -48 -52 -57 -93c-16 -74 -36 -208 -55 -328z" />
    <glyph glyph-name="two" unicode="2" horiz-adv-x="406" 
d="M115 342l-11 5c25 59 79 83 130 83c55 0 106 -29 106 -82c0 -142 -192 -240 -226 -270c57 0 124 -38 186 -38c8 0 38 1 48 22l12 22l17 -8c-30 -58 -51 -84 -75 -84c-84 0 -147 41 -227 41c-11 0 -25 -7 -55 -37l-12 10l46 42c65 65 237 205 237 309c0 36 -32 55 -69 55
c-40 0 -87 -22 -107 -70z" />
    <glyph glyph-name="three" unicode="3" horiz-adv-x="398" 
d="M128 347c33 79 96 83 133 83c62 0 102 -40 102 -82c0 -49 -42 -107 -103 -140c77 -18 123 -88 123 -150c0 -90 -87 -168 -217 -168c-80 0 -149 37 -161 128l12 3c10 -79 75 -113 147 -113c124 0 161 90 161 166c0 53 -30 111 -96 119c-23 -8 -47 -14 -72 -14
c-23 0 -32 4 -32 8c0 9 49 25 96 25h1c53 31 93 97 93 145c0 32 -23 55 -59 55c-60 0 -99 -27 -117 -70z" />
    <glyph glyph-name="four" unicode="4" horiz-adv-x="426" 
d="M26 64c21 19 211 214 211 360h55c0 -58 -210 -327 -241 -361h210l40 207c12 62 57 110 81 110c-6 -26 -10 -54 -22 -114l-40 -203h55l-5 -23h-54l-28 -144h-60l28 144h-235z" />
    <glyph glyph-name="five" unicode="5" horiz-adv-x="424" 
d="M93 200l-18 4l45 225c81 0 176 -34 212 -34c20 0 36 5 48 18l15 17l13 -13c-52 -63 -72 -81 -97 -81c-31 0 -85 29 -184 29l-29 -143c38 20 76 29 111 29c106 0 164 -76 164 -174c0 -124 -103 -189 -200 -189c-78 0 -151 42 -163 130l12 3c9 -74 77 -115 141 -115
c77 0 157 62 157 191c0 62 -36 137 -114 137c-40 0 -83 -15 -113 -34z" />
    <glyph glyph-name="six" unicode="6" horiz-adv-x="417" 
d="M342 546l4 -18c-134 -34 -247 -218 -247 -357c0 -89 42 -159 108 -159c60 0 131 75 131 187c0 96 -56 125 -104 125c-40 0 -71 -19 -96 -39l-10 15c44 30 76 42 114 42c80 0 151 -58 151 -162c0 -112 -104 -186 -194 -186c-98 0 -158 87 -158 193c0 140 124 315 301 359z
" />
    <glyph glyph-name="seven" unicode="7" horiz-adv-x="382" 
d="M100 -104c35 166 133 308 245 450c-66 15 -141 38 -194 38c-29 0 -52 -7 -61 -26l-8 -16l-12 4c31 63 36 81 40 84c5 3 15 4 28 4c90 0 205 -38 218 -38c24 0 38 17 54 36l14 -12c-27 -36 -24 -30 -56 -76c-95 -138 -158 -168 -208 -448h-60z" />
    <glyph glyph-name="eight" unicode="8" horiz-adv-x="437" 
d="M278 317c66 30 100 76 100 127c0 46 -41 72 -94 72c-97 0 -104 -95 -104 -106c0 -47 47 -70 98 -93zM309 303c53 -27 103 -62 103 -136c0 -138 -156 -173 -217 -173c-77 0 -161 43 -161 117c0 38 21 139 163 199c-37 20 -66 45 -66 91c0 87 84 133 157 133
c64 0 120 -34 120 -90c0 -21 -10 -93 -99 -141zM198 12c97 0 153 69 153 152c0 77 -62 104 -120 130c-104 -47 -155 -114 -155 -186c0 -58 52 -96 122 -96z" />
    <glyph glyph-name="nine" unicode="9" horiz-adv-x="433" 
d="M117 -122l-4 18c134 34 247 218 247 357c0 89 -42 159 -108 159c-60 0 -132 -75 -132 -187c0 -96 56 -125 104 -125c40 0 72 19 97 39l9 -15c-44 -30 -76 -42 -114 -42c-80 0 -150 58 -150 162c0 112 104 186 194 186c98 0 158 -87 158 -193c0 -140 -124 -315 -301 -359z
" />
    <glyph glyph-name="colon" unicode=":" horiz-adv-x="188" 
d="M121 300c14 0 24 -11 24 -25c0 -20 -20 -35 -36 -35c-14 0 -24 11 -24 25c0 20 20 35 36 35zM72 42c14 0 24 -11 24 -25c0 -20 -20 -35 -36 -35c-14 0 -24 11 -24 25c0 20 20 35 36 35z" />
    <glyph glyph-name="semicolon" unicode=";" horiz-adv-x="188" 
d="M72 42c16 0 25 -12 25 -30c0 -37 -43 -69 -49 -96l-12 1c14 43 29 50 29 62c0 3 -3 3 -5 3c-16 0 -25 11 -25 24c0 21 21 36 37 36zM121 300c14 0 24 -11 24 -25c0 -20 -20 -35 -36 -35c-14 0 -24 11 -24 25c0 20 20 35 36 35z" />
    <glyph glyph-name="less" unicode="&#x3c;" horiz-adv-x="472" 
d="M295 18l-19 -16l-185 230l275 230l12 -16l-254 -214z" />
    <glyph glyph-name="equal" unicode="=" horiz-adv-x="492" 
d="M451 282c-35 0 -283 -1 -325 -1l5 23h325zM430 174c-35 0 -283 -1 -325 -1l5 23h325z" />
    <glyph glyph-name="greater" unicode="&#x3e;" horiz-adv-x="452" 
d="M78 18l254 214l-172 214l19 16l185 -230l-274 -230z" />
    <glyph glyph-name="question" unicode="?" horiz-adv-x="348" 
d="M40 439c0 -39 23 -69 35 -77l-6 -10c-16 10 -41 44 -41 87c0 65 66 143 169 143c94 0 142 -71 142 -117c0 -108 -202 -181 -202 -293v-18h-18v12c0 125 161 190 161 307c0 38 -19 91 -86 91c-99 0 -154 -71 -154 -125zM130 42c14 0 24 -11 24 -25c0 -20 -20 -35 -36 -35
c-14 0 -24 11 -24 25c0 20 20 35 36 35z" />
    <glyph glyph-name="at" unicode="@" horiz-adv-x="688" 
d="M447 264c1 -1 2 -1 3 -1c10 0 27 37 47 37h17l-35 -180c-4 -21 -9 -49 -9 -71c0 -23 6 -42 27 -42c2 0 4 1 7 1c48 8 80 37 116 100c18 32 26 70 26 110c0 55 -18 118 -64 160c-41 37 -98 60 -164 60c-185 0 -352 -170 -352 -346c0 -132 98 -230 236 -230
c78 0 155 31 217 82l8 -10c-64 -52 -144 -84 -225 -84c-146 0 -248 105 -248 243c0 182 172 357 364 357c69 0 129 -23 172 -63c46 -42 68 -105 68 -169c0 -42 -10 -82 -28 -116c-44 -76 -85 -105 -148 -108c-51 0 -68 39 -68 84c-26 -47 -69 -84 -114 -84
c-80 0 -123 56 -123 126c0 100 89 186 183 186c37 0 65 -18 87 -42zM444 249c-21 24 -46 39 -84 39c-62 0 -124 -86 -124 -180c0 -58 26 -96 64 -96c48 0 98 43 118 105z" />
    <glyph glyph-name="A" unicode="A" horiz-adv-x="602" 
d="M472 117c8 -74 17 -105 41 -105c18 0 54 30 91 102l28 57l11 -6l-28 -55c-46 -90 -88 -116 -121 -116c-47 0 -74 57 -80 107l-9 85h-177c-26 -55 -51 -105 -71 -139c-19 -33 -44 -53 -74 -53c-32 0 -58 30 -58 55c0 3 1 6 2 9l11 -3c-1 -1 -1 -4 -1 -6
c0 -17 19 -43 46 -43c16 0 36 13 58 51c19 33 42 78 66 129h-26l5 24h32c59 126 122 275 138 329c-11 23 -29 39 -56 51l4 12c100 -39 129 -124 132 -154l26 -238h52l-5 -24h-45zM402 210l-26 243c-2 22 -5 41 -10 58c-23 -66 -76 -191 -127 -301h163z" />
    <glyph glyph-name="B" unicode="B" horiz-adv-x="682" 
d="M489 312c-18 7 -40 12 -65 12c-50 0 -72 -8 -72 -16c0 -18 37 -20 66 -20c26 0 51 9 71 24zM563 60c16 21 25 48 25 81c0 25 -8 110 -70 155c-28 -16 -62 -26 -100 -26c-40 0 -78 12 -78 38c0 16 29 34 84 34c29 0 56 -6 81 -15c28 29 45 70 45 110
c0 60 -37 127 -132 127c-44 0 -83 -11 -117 -28c30 -43 37 -88 37 -115c0 -6 0 -12 -1 -16l-45 -231c-4 -20 -10 -39 -17 -55c61 -39 111 -107 179 -107c37 0 71 11 95 33c-1 0 -15 3 -15 12c0 6 5 11 11 11c4 0 11 -5 18 -8zM224 143c3 10 5 21 8 33l50 250c4 21 7 40 7 57
c0 16 -3 30 -7 43c-73 -46 -115 -126 -115 -198c0 -39 11 -74 37 -100l-8 -8c-28 28 -41 67 -41 108c0 77 44 162 121 212c-7 14 -18 27 -33 38l7 10c16 -12 30 -26 41 -39c36 20 79 33 127 33c132 0 186 -76 186 -146c0 -46 -24 -93 -64 -125c65 -37 108 -101 108 -161
c0 -37 -14 -69 -38 -95c56 10 74 62 102 116l11 -6c-25 -51 -54 -121 -128 -124c-36 -30 -86 -47 -141 -47c-79 0 -135 66 -189 106c-46 -69 -123 -106 -175 -106c-31 0 -54 14 -54 42c0 40 41 111 156 111c11 0 22 -1 32 -4zM217 126c-7 2 -14 3 -22 3
c-108 0 -147 -57 -147 -93c0 -17 15 -24 35 -24c36 0 92 29 130 104c2 3 3 7 4 10z" />
    <glyph glyph-name="C" unicode="C" horiz-adv-x="437" 
d="M336 564c-215 0 -235 -298 -235 -348c0 -112 53 -204 167 -204c66 0 137 38 176 114l23 45l11 -6l-23 -45c-47 -91 -126 -126 -201 -126c-160 0 -212 123 -212 234c0 101 57 354 294 354c87 0 123 -49 123 -104c0 -50 -30 -105 -81 -131l-5 11c44 22 74 73 74 118
c0 47 -32 88 -111 88z" />
    <glyph glyph-name="D" unicode="D" horiz-adv-x="667" 
d="M249 578l7 10c14 -11 26 -22 36 -34c38 17 83 28 132 28c161 0 229 -115 229 -244c0 -93 -35 -193 -93 -261c70 1 106 35 137 94l11 -6c-26 -52 -73 -100 -151 -100h-7c-41 -43 -92 -71 -150 -71c-65 0 -104 45 -148 81c-49 -59 -121 -81 -158 -81c-32 0 -64 14 -64 42
c0 40 44 99 126 99c24 0 45 -6 64 -16c8 17 14 36 18 57l50 250c4 21 7 40 7 57c0 18 -3 35 -9 50c-89 -44 -142 -127 -142 -203c0 -38 14 -74 42 -102l-8 -8c-31 31 -46 70 -46 111c0 80 54 169 146 216c-7 11 -17 22 -29 31zM212 103c-17 9 -35 14 -56 14
c-76 0 -114 -49 -114 -81c0 -17 27 -24 47 -24c38 0 90 30 123 91zM517 90c46 67 76 168 76 259c0 115 -46 215 -169 215c-45 0 -86 -8 -121 -23c33 -45 41 -92 41 -120c0 -6 0 -12 -1 -16l-45 -231c-6 -33 -19 -61 -35 -84c43 -35 80 -78 137 -78c39 0 75 24 105 62
c-3 2 -3 4 -3 7c0 5 5 11 10 11c3 0 4 -1 5 -2z" />
    <glyph glyph-name="E" unicode="E" horiz-adv-x="438" 
d="M408 396c22 30 32 61 32 87c0 49 -37 81 -115 81c-118 0 -132 -155 -132 -194c0 -15 2 -27 6 -38c21 6 43 10 67 10c33 0 58 -14 58 -34c0 -24 -38 -38 -54 -38c-35 0 -65 12 -89 32c-70 -43 -79 -135 -79 -161c0 -85 72 -129 152 -129c72 0 149 35 190 114l24 45l11 -6
l-23 -45c-47 -91 -130 -126 -210 -126c-105 0 -204 63 -204 156c0 65 49 134 122 169c-18 22 -28 49 -28 80c0 90 87 183 188 183c85 0 127 -44 127 -100c0 -29 -11 -62 -34 -94zM207 315c12 -17 32 -27 64 -27c13 0 37 10 37 20c0 8 -20 16 -42 16c-23 0 -42 -3 -59 -9z
" />
    <glyph glyph-name="F" unicode="F" horiz-adv-x="580" 
d="M618 538c-20 4 -39 5 -57 5c-71 0 -134 -23 -199 -37c8 -16 13 -35 13 -56c0 -10 -1 -21 -3 -33l-35 -183c34 -2 61 -4 82 -4c88 0 70 15 91 93c3 13 14 18 25 18c17 0 36 -12 36 -28c0 -4 -1 -7 -3 -11c-16 -32 -31 -53 -46 -68c-5 -12 -7 -24 -7 -34
c0 -30 19 -51 45 -51c38 0 45 19 49 27l12 -6c-5 -10 -15 -34 -61 -34c-32 0 -61 28 -61 69c0 3 2 10 2 13c-16 -9 -34 -12 -55 -12c-29 0 -64 5 -112 9l-22 -115c-14 -73 -78 -106 -138 -106c-67 0 -132 40 -132 106h12c0 -47 49 -86 99 -86c43 0 87 29 102 105l20 99
c-11 0 -23 1 -35 1l13 18h26l35 171c4 22 7 42 7 59c0 11 -1 21 -3 31c-12 -1 -24 -2 -36 -2c-132 0 -188 54 -188 86c0 25 25 35 59 35c84 0 159 -50 190 -84c79 25 161 71 284 71c11 0 15 -5 15 -13c0 -16 -16 -41 -24 -53zM309 524c-37 74 -119 80 -148 80
c-31 0 -55 -8 -55 -22c0 -19 41 -64 151 -64c18 0 35 2 52 6z" />
    <glyph glyph-name="G" unicode="G" horiz-adv-x="490" 
d="M336 564c-215 0 -241 -314 -241 -399c0 -113 51 -153 111 -153c56 0 120 34 160 81l30 155h60l-39 -201c37 32 72 72 103 124l11 -6c-35 -59 -76 -103 -118 -138l-43 -221c-20 -104 -125 -118 -153 -118c-110 0 -153 82 -153 114c0 99 142 107 283 194l14 68
c-41 -44 -100 -70 -156 -70c-86 0 -166 61 -166 209c0 118 55 379 297 379c87 0 123 -49 123 -104c0 -50 -30 -105 -81 -131l-5 11c44 22 74 73 74 118c0 47 -32 88 -111 88zM344 -21c-134 -80 -262 -91 -262 -177c0 -20 33 -96 135 -96c24 0 76 9 89 78z" />
    <glyph glyph-name="H" unicode="H" horiz-adv-x="608" 
d="M179 205c-75 -36 -125 -95 -125 -169c0 -20 9 -31 23 -31c19 0 46 21 68 65c9 17 17 52 34 135zM453 293l-208 -64c-24 -125 -32 -158 -48 -179c-26 -42 -69 -64 -103 -64c-29 0 -52 16 -52 50c0 80 57 148 141 188l45 228c4 22 7 41 7 59c0 39 -13 68 -45 93l8 10
c71 -53 88 -124 88 -163c0 -8 -1 -15 -2 -20l-35 -182l208 63c32 161 48 233 65 256c19 26 44 32 56 32s52 -6 52 -76c0 -79 -43 -168 -113 -208c-23 -120 -45 -228 -45 -268c0 -24 6 -35 23 -35c23 0 73 19 115 101l28 57l11 -6l-28 -55c-37 -72 -80 -116 -136 -116
c-52 0 -68 47 -68 94c0 23 3 35 36 205zM521 337c63 39 97 118 97 191c0 47 -22 60 -34 60c-17 0 -35 -96 -63 -251z" />
    <glyph glyph-name="I" unicode="I" horiz-adv-x="444" 
d="M316 47c72 0 127 64 158 124l11 -6c-26 -52 -91 -130 -169 -130c-7 0 -13 1 -20 2c-27 -29 -67 -43 -106 -43c-67 0 -132 40 -132 106c0 56 57 116 84 130l5 -10c-26 -13 -77 -71 -77 -120c0 -47 48 -86 98 -86c27 0 54 11 74 38c-11 0 -12 7 -12 11c0 6 5 11 11 11
c2 0 3 0 12 -5c7 14 13 30 17 50c44 223 52 349 75 392c-54 26 -115 63 -159 63c-50 0 -70 -14 -105 -83l-11 5c36 72 60 96 116 96c50 0 114 -40 169 -66c38 54 77 79 105 79c23 0 38 -17 38 -50c0 -53 -40 -70 -72 -70c-9 0 -19 2 -30 5c-13 -36 -19 -129 -69 -390
c-4 -20 -12 -38 -22 -52c4 -1 7 -1 11 -1zM403 506c8 -2 16 -3 23 -3c25 0 60 6 60 52c0 21 -5 35 -15 35c-13 0 -36 -24 -68 -84z" />
    <glyph glyph-name="J" unicode="J" horiz-adv-x="522" 
d="M481 506c8 -2 16 -3 23 -3c25 0 60 6 60 52c0 21 -5 35 -15 35c-13 0 -36 -24 -68 -84zM474 490c-13 -34 -16 -110 -66 -370l-22 -113c62 37 121 89 166 164l11 -6c-49 -82 -113 -136 -180 -175l-35 -184c-20 -104 -125 -118 -153 -118c-110 0 -153 82 -153 114
c0 89 136 104 278 170l28 147c44 223 52 349 75 392c-54 26 -115 63 -159 63c-50 0 -70 -14 -105 -83l-11 5c36 72 60 96 116 96c50 0 114 -40 169 -66c38 54 77 79 105 79c23 0 38 -17 38 -50c0 -53 -40 -70 -72 -70c-9 0 -19 2 -30 5zM317 -44
c-134 -61 -257 -77 -257 -154c0 -20 33 -96 135 -96c24 0 76 9 89 78z" />
    <glyph glyph-name="K" unicode="K" horiz-adv-x="678" 
d="M403 498c25 6 50 22 50 57c0 18 -3 26 -7 26c-10 0 -27 -37 -43 -83zM395 294c-23 -29 -41 -58 -55 -84l-22 -110c-15 -73 -77 -106 -137 -106c-67 0 -133 40 -133 106c0 56 57 116 84 130l6 -10c-26 -13 -78 -71 -78 -120c0 -47 50 -86 100 -86c43 0 87 29 102 105
l56 288c6 29 14 56 23 79c-62 17 -87 84 -127 84c-17 0 -69 -24 -70 -113h-12c1 94 57 125 82 125c48 0 72 -69 132 -85c28 65 68 104 93 104c15 0 26 -15 26 -46c0 -45 -33 -64 -66 -70c-8 -26 -16 -54 -21 -78l-29 -147c73 116 238 278 317 334c15 11 23 12 29 12
c7 0 11 -4 11 -8c-5 -46 -5 -67 -49 -70c-5 0 -10 1 -15 6c-25 -9 -126 -98 -209 -194c84 -90 82 -328 147 -328c50 0 65 37 103 111l24 48l12 -6l-24 -47c-41 -80 -59 -124 -115 -124c-98 0 -127 221 -185 300z" />
    <glyph glyph-name="L" unicode="L" horiz-adv-x="607" 
d="M452 581c67 0 132 -39 132 -105c0 -56 -57 -117 -84 -131l-5 11c26 13 77 71 77 120c0 47 -48 86 -98 86c-43 0 -87 -30 -102 -106c-36 -185 -52 -279 -70 -328c78 -37 125 -114 202 -114c26 0 71 36 104 100l29 57l11 -6l-28 -55c-37 -72 -79 -116 -135 -116
c-87 0 -147 58 -201 98c-45 -63 -128 -98 -184 -98c-35 0 -60 14 -60 42c0 87 124 113 179 113c12 0 22 -3 29 -4c11 39 25 118 67 331c14 73 77 105 137 105zM239 120c-14 6 -32 9 -50 9c-63 0 -137 -37 -137 -93c0 -17 16 -27 39 -27c93 0 148 111 148 111z" />
    <glyph glyph-name="M" unicode="M" horiz-adv-x="723" 
d="M336 39c-2 16 -7 34 -11 57l-61 357c-4 25 -10 45 -17 62c-92 -504 -128 -521 -163 -521c-18 0 -36 17 -48 39c6 3 12 7 22 7c2 0 4 -1 7 -1c4 -18 11 -33 19 -33h2c16 0 50 8 148 535c-15 22 -36 37 -64 49l4 12c61 -25 136 -65 150 -146l58 -339l248 420
c28 45 66 60 102 60c16 0 32 -3 46 -8v-2c0 -10 -11 -43 -18 -49c-15 5 -37 28 -62 28c-5 0 -9 -1 -14 -3l-63 -443c-4 -26 -6 -47 -6 -64c0 -26 7 -40 26 -40h1c21 1 59 53 82 98l29 57l11 -6l-28 -55c-48 -95 -74 -116 -130 -116c-39 0 -49 30 -49 69c0 19 2 40 5 60
l48 344l-224 -377c0 -5 1 -9 1 -14c0 -52 -29 -99 -53 -132c-9 9 -13 23 -13 38c0 20 7 42 15 57z" />
    <glyph glyph-name="N" unicode="N" horiz-adv-x="640" 
d="M642 114l28 57l11 -6l-28 -55c-37 -72 -69 -116 -111 -116c-50 0 -103 34 -132 107l-140 352c-12 27 -21 49 -29 66c-39 -216 -65 -343 -85 -418c-22 -85 -53 -107 -77 -107c-30 0 -47 27 -47 58h12c0 -29 15 -46 35 -46c25 0 43 37 59 98c19 75 46 207 89 440
c-14 21 -30 34 -57 46l4 12c61 -25 122 -68 156 -146l139 -351l14 -37l81 416c16 74 73 98 121 98c2 -3 4 -16 4 -29c0 -11 -1 -21 -4 -25c-12 0 -32 9 -52 9c-22 0 -43 -11 -52 -55l-86 -440c11 -20 25 -36 45 -36c32 0 63 32 102 108z" />
    <glyph glyph-name="O" unicode="O" horiz-adv-x="606" 
d="M514 60c70 0 95 57 122 111l11 -6c-26 -52 -55 -117 -133 -117c-23 0 -44 4 -61 8c-52 -38 -117 -62 -191 -62c-141 0 -221 88 -221 224c0 187 131 364 337 364c140 0 221 -87 221 -224c0 -113 -48 -222 -131 -291c14 -4 29 -7 46 -7zM378 564
c-224 0 -280 -248 -280 -375c0 -108 46 -177 164 -177c65 0 116 22 156 55c-8 4 -19 5 -19 15c0 6 4 11 10 11c5 0 8 -2 25 -12c83 83 108 222 108 305c0 109 -47 178 -164 178z" />
    <glyph glyph-name="P" unicode="P" horiz-adv-x="641" 
d="M54 100c0 -47 49 -86 99 -86c43 0 86 29 101 105l2 11c-39 47 -64 107 -64 174c0 80 35 176 120 230c-7 17 -19 31 -36 44l8 10c19 -14 33 -29 45 -44c38 20 86 32 143 32c134 0 201 -100 201 -195c0 -104 -82 -237 -247 -237c-43 0 -83 11 -102 21
c-11 -56 -11 -63 -13 -70c45 -34 98 -53 153 -53c108 0 180 75 208 129l10 -6c-30 -58 -104 -135 -218 -135c-56 0 -111 20 -157 53c-21 -60 -79 -89 -133 -89c-67 0 -132 40 -132 106h12zM328 185c15 -8 44 -23 98 -23c166 0 188 183 188 230c0 82 -42 166 -153 166
c-49 0 -90 -10 -124 -26c28 -44 34 -88 34 -113c0 -6 -1 -11 -1 -14c-4 -37 -5 -31 -42 -220zM259 146l55 280c3 18 7 36 7 57c0 12 -1 25 -5 38c-80 -49 -112 -139 -112 -217c0 -60 21 -114 55 -158z" />
    <glyph glyph-name="Q" unicode="Q" horiz-adv-x="606" 
d="M272 -8c204 86 272 234 272 357c0 120 -64 215 -168 215c-228 0 -275 -258 -275 -348c0 -110 55 -200 171 -224zM636 171l11 -6c-86 -167 -233 -192 -314 -192c-19 0 -39 2 -56 4c-50 -21 -91 -44 -132 -81l209 -26c9 -1 17 -2 25 -2c47 0 77 20 89 44l9 15l21 -5
c-31 -73 -84 -108 -144 -108c-8 0 -16 1 -24 2c-182 25 -192 27 -202 27c-24 0 -36 -10 -51 -31l-21 2c7 11 12 20 18 28c55 77 117 114 175 140c-127 25 -206 110 -206 254c0 156 120 346 333 346c134 0 226 -108 226 -240c0 -124 -83 -269 -303 -355c10 -1 24 -2 34 -2
c190 0 270 121 303 186z" />
    <glyph glyph-name="R" unicode="R" horiz-adv-x="696" 
d="M648 421c0 -78 -76 -169 -186 -169h-15c59 -98 95 -240 150 -240c50 0 67 37 105 111l24 48l11 -6l-24 -47c-41 -80 -59 -124 -115 -124c-98 0 -168 186 -226 264c-4 4 -5 8 -5 12c0 7 9 27 43 32c7 -8 20 -32 52 -32c117 0 126 119 126 159c0 67 -51 129 -140 129
c-32 0 -69 -7 -111 -26c27 -41 34 -84 34 -110c0 -7 0 -13 -1 -17c-5 -42 -5 -29 -58 -303c-14 -73 -78 -108 -138 -108c-67 0 -132 40 -132 106c0 56 57 116 84 130l6 -10c-26 -13 -78 -71 -78 -120c0 -47 49 -86 99 -86c43 0 86 29 101 105l60 307c4 22 7 41 7 59
c0 13 -2 25 -5 36c-77 -45 -116 -124 -116 -193c0 -39 12 -75 38 -100l-9 -8c-27 27 -41 66 -41 108c0 74 42 158 124 207c-7 16 -19 30 -36 43l8 10c18 -14 33 -29 45 -44c46 23 89 32 128 32c113 0 191 -79 191 -155z" />
    <glyph glyph-name="S" unicode="S" horiz-adv-x="468" 
d="M95 104c0 -39 19 -92 122 -92c47 0 97 18 127 54c-6 1 -12 5 -12 12c0 6 4 11 10 11c3 0 4 -1 14 -6c9 16 14 34 14 55c0 128 -124 200 -132 316l-78 -154l-10 6l89 177c5 54 37 105 97 105l21 -34c-42 0 -72 -14 -88 -40c-2 -4 -13 -19 -13 -48
c0 -101 174 -169 174 -328c0 -19 -5 -37 -14 -53c35 16 61 45 82 86l11 -6c-21 -41 -56 -79 -105 -97c-38 -47 -113 -74 -187 -74c-108 0 -169 56 -169 110c0 10 0 22 6 32c6 12 17 16 27 16c13 0 24 -8 24 -17c0 -8 -10 -15 -10 -31z" />
    <glyph glyph-name="T" unicode="T" horiz-adv-x="427" 
d="M329 53c72 0 97 58 128 118l11 -6c-26 -52 -61 -124 -139 -124c-7 0 -14 1 -20 2c-27 -33 -70 -49 -111 -49c-67 0 -132 40 -132 106h12c0 -47 48 -86 98 -86c29 0 58 13 79 44c-8 2 -11 7 -11 11c0 5 5 11 10 11c2 0 2 0 10 -4c6 12 11 26 14 43l63 319c4 20 6 37 6 54
s-2 33 -8 49c-11 -2 -21 -3 -33 -3c-132 0 -273 68 -273 128c0 17 18 24 45 24c59 0 161 -34 219 -76c19 -13 36 -28 50 -44c77 22 140 74 229 74c56 0 109 -9 171 -60l-9 -8c-56 46 -107 48 -141 48c-102 0 -156 -56 -232 -78c18 -27 33 -62 33 -103c0 -12 -1 -25 -4 -38
l-59 -305c-3 -17 -10 -33 -18 -46c4 -1 8 -1 12 -1zM327 565c-9 13 -22 25 -37 37c-58 45 -166 76 -217 76c-17 0 -28 -4 -28 -12c0 -51 125 -106 235 -106c16 0 32 2 47 5z" />
    <glyph glyph-name="U" unicode="U" horiz-adv-x="505" 
d="M415 120c-7 -34 -13 -61 -13 -79c0 -17 6 -25 21 -25h1c21 1 59 53 82 98l29 57l11 -6l-28 -55c-48 -95 -73 -116 -129 -116c-34 0 -43 22 -43 53c0 27 7 63 13 92c-68 -85 -144 -145 -185 -145c-74 0 -135 54 -135 168c0 144 82 245 82 350c0 38 -12 67 -44 92l7 10
c71 -53 88 -124 88 -163c0 -59 -82 -189 -82 -320c0 -66 23 -119 94 -119c30 0 110 63 180 154l80 410h60z" />
    <glyph glyph-name="V" unicode="V" horiz-adv-x="466" 
d="M403 628c53 0 56 -69 56 -114c0 -103 -12 -274 -98 -404c12 -21 27 -33 43 -33c37 0 63 38 92 94l11 -6c-26 -52 -55 -100 -103 -100c-20 0 -36 13 -50 34c-46 -66 -106 -105 -172 -105c-75 0 -142 56 -142 174c0 36 6 78 20 125c23 77 61 146 61 219c0 38 -12 67 -44 92
l7 10c71 -53 88 -124 88 -163c0 -41 -35 -111 -52 -163c-16 -46 -28 -101 -28 -150c0 -69 25 -126 98 -126c49 0 104 45 144 129c-24 64 -34 155 -34 223c0 102 16 168 33 204s40 60 70 60zM341 156c37 84 61 202 61 348c0 66 -12 90 -26 90c-8 0 -18 0 -32 -30
c-20 -45 -32 -116 -32 -200c0 -75 11 -153 29 -208z" />
    <glyph glyph-name="W" unicode="W" horiz-adv-x="729" 
d="M85 117c0 -59 21 -105 87 -105c98 0 145 160 180 321l21 106h60l-30 -152c-13 -68 -20 -122 -20 -163c0 -78 25 -112 86 -112c43 0 90 43 128 124c-25 64 -35 158 -35 228c0 102 17 168 34 204s40 60 70 60c53 0 56 -68 56 -113c0 -173 -38 -308 -99 -405
c12 -21 27 -33 43 -33c37 0 64 38 93 94l11 -6c-26 -52 -56 -100 -104 -100c-20 0 -36 13 -50 34c-45 -66 -100 -105 -156 -105c-64 0 -111 40 -125 125c-44 -83 -88 -125 -173 -125c-72 0 -125 51 -125 158c0 149 84 255 84 360c0 38 -12 67 -44 92l7 10
c71 -53 88 -124 88 -163c0 -58 -87 -205 -87 -334zM665 504c0 69 -12 90 -30 90c-5 0 -16 -2 -29 -30c-20 -45 -32 -116 -32 -200c0 -77 11 -157 30 -213c36 84 61 204 61 353z" />
    <glyph glyph-name="X" unicode="X" horiz-adv-x="517" 
d="M372 161c18 -91 26 -149 60 -149c20 0 47 26 87 104l28 55l11 -6l-34 -67c-34 -66 -63 -104 -92 -104c-60 0 -95 40 -120 168l-7 36c-50 -111 -110 -204 -180 -204c-54 0 -79 36 -79 82c0 54 34 119 88 147l8 -16c-47 -24 -78 -84 -78 -131c0 -30 12 -64 61 -64
c65 0 124 102 174 218l-34 172c-17 89 -29 162 -62 162c-24 0 -47 -20 -97 -117l-11 6c54 107 72 129 106 129c70 0 101 -56 125 -181l14 -71c25 65 47 128 67 172c26 57 79 79 123 79c9 0 18 -1 26 -3c0 -1 1 -2 1 -5c0 -13 -6 -43 -12 -48c-13 3 -37 17 -62 17
c-21 0 -43 -10 -59 -46c-22 -49 -48 -124 -78 -200z" />
    <glyph glyph-name="Y" unicode="Y" horiz-adv-x="499" 
d="M366 -194c-20 -104 -122 -118 -152 -118c-110 0 -154 82 -154 114c0 96 141 106 282 187l29 148c-71 -98 -150 -143 -197 -143c-74 0 -135 54 -135 168c0 142 82 245 82 350c0 38 -12 67 -44 92l7 10c71 -53 88 -124 88 -163c0 -64 -82 -184 -82 -320
c0 -66 23 -119 94 -119c34 0 119 45 192 154l80 410h60l-105 -541c44 34 84 78 119 136l10 -6c-39 -65 -85 -112 -133 -148zM339 -28c-134 -74 -261 -87 -261 -170c0 -20 34 -96 136 -96c24 0 76 17 88 78z" />
    <glyph glyph-name="Z" unicode="Z" horiz-adv-x="518" 
d="M150 501c31 63 36 80 40 83c5 3 18 4 36 4c61 0 178 -14 236 -33c15 -5 26 -7 34 -7c15 0 24 7 39 22l15 16l13 -13l-67 -75l-371 -420c58 -9 247 -37 319 -37c8 0 38 1 48 21l56 109l11 -6c-54 -104 -83 -176 -115 -176c-86 0 -272 39 -354 39c-11 0 -16 -6 -42 -34
l-12 12l38 42l399 452c-66 15 -162 38 -229 38c-37 0 -66 -7 -75 -26l-7 -16z" />
    <glyph glyph-name="bracketleft" unicode="[" horiz-adv-x="556" 
d="M516 246c-29 66 -88 93 -148 93c-88 0 -184 -56 -191 -184c48 12 98 15 140 15c256 0 300 120 300 200c0 79 -46 157 -102 181l5 10c63 -27 109 -109 109 -192c0 -87 -48 -217 -312 -217c-43 0 -93 -2 -140 -13c0 -85 72 -175 168 -175c127 0 167 62 241 207l11 -6
c-75 -147 -118 -219 -252 -219c-105 0 -183 99 -186 188c-80 -24 -147 -82 -147 -215c0 -21 2 -41 8 -62l-12 -3c-6 22 -8 43 -8 65c0 141 74 204 159 231c5 138 112 207 209 207c64 0 127 -34 158 -106z" />
    <glyph glyph-name="backslash" unicode="\" horiz-adv-x="713" 
d="M296 673l210 -877l-22 -5l-210 877z" />
    <glyph glyph-name="bracketright" unicode="]" horiz-adv-x="647" 
d="M-37 -66c0 -21 2 -41 8 -62l-12 -3c-6 22 -8 43 -8 65c0 247 229 251 327 251c57 0 115 0 172 15c-1 84 -68 173 -163 173c-127 0 -172 -63 -246 -208l-11 6c75 147 123 220 257 220c101 0 177 -97 181 -185c77 26 137 83 137 212c0 21 -2 41 -8 62l12 3
c6 -22 8 -43 8 -65c0 -137 -69 -199 -149 -227c-4 -140 -112 -211 -209 -211c-70 0 -138 41 -166 126l11 4c26 -80 90 -112 155 -112c89 0 185 57 191 187c-55 -17 -115 -18 -156 -18c-117 0 -331 -8 -331 -233z" />
    <glyph glyph-name="asciicircum" unicode="^" horiz-adv-x="408" 
d="M123 439l110 105c14 14 23 18 29 18h3c6 0 14 -9 25 -23l77 -103c-2 -2 -19 -2 -25 -2c-23 33 -78 87 -84 87c-8 0 -81 -55 -112 -87c-6 0 -18 -1 -23 5z" />
    <glyph glyph-name="underscore" unicode="_" horiz-adv-x="540" 
d="M427 -190c-35 0 -331 -1 -373 -1l5 23h373z" />
    <glyph glyph-name="grave" unicode="`" horiz-adv-x="269" 
d="M194 400c-2 -2 -14 -2 -20 -2c-16 24 -35 34 -46 40c-30 18 -38 16 -38 35c0 7 1 16 2 30c0 4 4 5 12 5c6 0 14 -9 26 -23c32 -36 42 -50 64 -85z" />
    <glyph glyph-name="a" unicode="a" 
d="M356 300l-35 -180c-4 -22 -10 -51 -10 -74c0 -22 6 -39 24 -39c44 0 85 73 110 123l21 41l11 -6l-22 -41c-64 -124 -97 -130 -131 -130c-48 0 -66 34 -68 75c-27 -44 -70 -75 -115 -75c-80 0 -123 56 -123 126c0 99 87 186 182 186c59 0 85 -43 91 -43c10 0 29 37 49 37
h16zM285 250c-21 24 -48 38 -85 38c-63 0 -124 -88 -124 -179c0 -58 27 -97 65 -97c48 0 98 43 118 105z" />
    <glyph glyph-name="b" unicode="b" horiz-adv-x="358" 
d="M74 118c-1 -8 -2 -15 -2 -22c0 -55 43 -84 86 -84c25 0 46 13 63 34c-9 2 -11 7 -11 11c0 6 5 11 11 11c2 0 2 0 12 -5c25 41 38 97 38 135c0 54 -22 90 -59 90c-41 0 -84 -14 -118 -42c-5 -40 -11 -83 -20 -128zM99 284c55 86 118 191 118 250c0 47 -79 60 -91 60l-2 -2
c-16 -20 -6 -132 -25 -308zM104 268c32 24 71 38 108 38c78 0 117 -53 117 -120c0 -48 -18 -96 -48 -132c58 8 81 65 107 116l11 -5c-26 -51 -55 -122 -130 -124c-29 -29 -67 -47 -111 -47c-85 0 -144 58 -144 113c0 4 0 9 1 13c58 298 52 449 75 479c3 4 30 7 36 7
c14 0 103 -7 103 -74c0 -65 -69 -177 -125 -264z" />
    <glyph glyph-name="c" unicode="c" horiz-adv-x="312" 
d="M16 112c0 58 48 194 182 194c57 0 94 -22 94 -60c0 -22 -13 -38 -33 -38c-13 0 -23 10 -23 23c0 12 8 23 19 29c-7 25 -40 28 -57 28c-92 0 -124 -145 -124 -193c0 -59 33 -83 77 -83c57 0 130 42 167 114l24 45l11 -6l-23 -45c-45 -89 -119 -126 -184 -126
c-70 0 -130 44 -130 118z" />
    <glyph glyph-name="d" unicode="d" 
d="M339 228c20 1 37 29 49 80c27 114 38 214 38 271c0 3 -2 14 -3 15c-19 -14 -58 -219 -84 -366zM336 215l-16 -95c-4 -21 -9 -49 -9 -72s6 -41 24 -41c44 0 83 71 110 123l21 41l11 -6l-22 -41c-64 -124 -95 -128 -131 -130c-47 0 -64 36 -67 77c-27 -45 -70 -77 -116 -77
c-80 0 -123 56 -123 126c0 93 83 186 182 186c35 0 62 -16 84 -38c24 137 61 323 86 337c2 0 52 1 54 1c8 0 14 -11 14 -27c0 -58 -11 -159 -38 -274c-15 -64 -37 -90 -61 -90h-3zM281 253c-20 22 -46 35 -81 35c-59 0 -124 -88 -124 -179c0 -58 27 -97 65 -97
c48 0 98 43 118 105c0 2 1 4 1 6c0 3 8 58 21 130z" />
    <glyph glyph-name="e" unicode="e" horiz-adv-x="312" 
d="M330 120c-45 -89 -119 -126 -184 -126c-70 0 -130 44 -130 118c0 57 47 194 182 194c54 0 86 -25 86 -67c0 -39 -36 -115 -144 -115c-24 0 -44 5 -61 13c-4 -18 -5 -33 -5 -42c0 -59 33 -83 77 -83c57 0 130 42 167 114l24 45l11 -6zM82 150c16 -8 35 -14 58 -14
c64 0 96 69 96 103c0 36 -14 49 -38 49c-68 0 -102 -79 -116 -138z" />
    <glyph glyph-name="f" unicode="f" horiz-adv-x="190" 
d="M76 552c7 48 17 54 65 54c42 0 87 -30 87 -80c0 -129 -74 -205 -135 -283c-6 -49 -14 -104 -25 -168h55c32 0 73 50 97 96l11 -6c-35 -67 -78 -114 -113 -114h-54l-10 -51l-58 -300h-60l58 300c58 300 58 368 82 552zM95 266c58 72 121 143 121 260c0 44 -35 68 -79 68
c-19 0 -23 -5 -25 -45c-4 -78 -3 -158 -17 -283z" />
    <glyph glyph-name="g" unicode="g" horiz-adv-x="391" 
d="M105 -288c24 0 76 3 89 72l36 188c-133 -74 -260 -87 -260 -170c0 -20 33 -90 135 -90zM354 300l-51 -265c43 34 84 78 118 136l11 -6c-39 -65 -85 -113 -133 -149l-41 -210c-20 -104 -125 -112 -153 -112c-110 0 -153 76 -153 108c0 96 140 106 281 187l13 66
c-27 -36 -65 -61 -105 -61c-80 0 -123 56 -123 126c0 97 85 186 182 186c37 0 65 -17 88 -41c1 -1 2 -2 3 -2c10 0 27 37 47 37h16zM257 110l28 140c-21 24 -48 38 -85 38c-62 0 -124 -85 -124 -179c0 -58 27 -97 65 -97c46 0 95 40 116 98z" />
    <glyph glyph-name="h" unicode="h" horiz-adv-x="403" 
d="M53 0h-61l24 123c58 297 51 446 74 476c3 4 30 7 36 7c14 0 103 -7 103 -74s-74 -186 -131 -275c-4 -30 -9 -62 -15 -96c69 99 134 145 183 145c42 0 80 -33 80 -88c0 -49 -35 -133 -35 -177c0 -16 4 -27 17 -27c19 0 33 13 77 100l29 57l10 -6l-28 -55
c-48 -92 -58 -116 -117 -116c-37 0 -47 25 -47 55c0 55 36 124 36 197c0 24 -5 42 -22 42c-42 0 -112 -45 -191 -173zM101 287c54 86 116 188 116 247c0 47 -79 60 -91 60l-2 -2c-16 -20 -4 -128 -23 -305z" />
    <glyph glyph-name="i" unicode="i" horiz-adv-x="188" 
d="M134 486c17 0 30 -13 30 -29c0 -24 -27 -43 -44 -43s-30 13 -30 29c0 24 27 43 44 43zM120 300c7 0 12 -3 12 -7c-23 -77 -53 -233 -53 -255c0 -14 4 -20 15 -20c16 0 57 21 95 96l29 57l11 -6l-29 -57c-36 -69 -78 -114 -134 -114c-34 0 -43 26 -43 58c0 23 4 46 18 113
l-11 6c22 44 40 90 44 117h-18l2 12h62z" />
    <glyph glyph-name="j" unicode="j" horiz-adv-x="165" 
d="M134 486c17 0 30 -13 30 -29c0 -24 -27 -43 -44 -43s-30 13 -30 29c0 24 27 43 44 43zM41 165l-11 6c22 44 37 90 41 117h-15l2 12h62c7 0 12 -3 12 -7c-13 -43 -9 -17 -29 -118l-28 -145c43 35 85 80 121 141l10 -6c-41 -68 -87 -117 -134 -154l-40 -205
c-20 -104 -124 -112 -152 -112c-92 0 -118 76 -118 108c0 93 117 105 244 180zM3 -35c-118 -68 -223 -82 -223 -163c0 -20 16 -90 100 -90c24 0 75 3 88 72z" />
    <glyph glyph-name="k" unicode="k" horiz-adv-x="351" 
d="M100 285c54 86 117 190 117 249c0 47 -79 60 -91 60l-2 -2c-16 -20 -4 -128 -24 -307zM52 0h-60l24 123c58 297 51 446 74 476c3 4 30 7 36 7c12 0 103 -6 103 -72c0 -67 -75 -189 -133 -279c-5 -41 -12 -87 -21 -135l-3 -17c40 71 117 153 196 209c15 11 22 12 28 12
c7 0 12 -4 12 -8c-5 -46 -6 -67 -50 -70c-5 0 -9 1 -14 6c-20 -7 -56 -29 -92 -66c81 -88 58 -174 100 -174c50 0 66 37 104 111l25 48l11 -6l-24 -47c-41 -80 -60 -124 -116 -124c-79 0 -82 71 -138 148c-21 -28 -40 -62 -54 -100z" />
    <glyph glyph-name="l" unicode="l" horiz-adv-x="204" 
d="M75 120c-3 -21 -8 -46 -8 -67c0 -23 5 -40 24 -40c23 0 71 18 114 101l29 57l11 -6l-29 -55c-36 -72 -80 -116 -136 -116c-52 0 -67 44 -67 91c0 13 1 26 3 38c58 297 51 446 74 476c3 4 30 7 36 7c12 0 103 -6 103 -72c0 -67 -75 -188 -132 -278
c-5 -42 -12 -87 -22 -136zM100 286c54 86 117 189 117 248c0 47 -73 60 -87 60c0 0 -4 0 -6 -2c-16 -20 -4 -128 -24 -306z" />
    <glyph glyph-name="m" unicode="m" horiz-adv-x="579" 
d="M299 120l-23 -121l-60 2l24 122c6 35 18 84 18 123c0 24 -2 42 -20 42c-29 0 -72 -21 -132 -99l-37 -189h-60l32 165l-11 6c22 44 40 90 44 117h-18l2 12h62c7 0 12 -3 12 -7c-6 -21 -11 -39 -17 -64c46 52 87 77 123 77c42 0 76 -29 76 -83c48 56 91 83 128 83
c42 0 79 -33 79 -88c0 -48 -34 -132 -34 -176c0 -16 4 -28 17 -28c15 0 28 7 76 100l29 57l11 -6l-28 -55c-50 -96 -63 -116 -118 -116c-37 0 -47 25 -47 55c0 55 37 129 37 197c0 24 -4 42 -22 42c-28 0 -71 -21 -130 -97c-3 -21 -8 -44 -13 -71z" />
    <glyph glyph-name="n" unicode="n" horiz-adv-x="400" 
d="M286 246c0 24 -5 42 -22 42c-37 0 -96 -35 -164 -130l-31 -158h-60l32 165l-11 6c22 44 40 90 44 117h-18l2 12h62c7 0 12 -3 12 -7c-9 -29 -15 -52 -24 -94c59 73 114 107 156 107s78 -33 78 -88c0 -52 -34 -136 -34 -177c0 -16 4 -27 17 -27c19 0 32 13 76 100l29 57
l11 -6l-28 -55c-45 -87 -60 -116 -117 -116c-37 0 -47 25 -47 55c0 55 37 129 37 197z" />
    <glyph glyph-name="o" unicode="o" horiz-adv-x="362" 
d="M277 222c0 38 -16 66 -71 66c-115 0 -132 -152 -132 -200c0 -47 19 -76 74 -76c33 0 57 14 75 35c-6 2 -8 6 -8 10c0 5 5 11 10 11c2 0 2 0 11 -4c38 59 41 147 41 158zM148 -6c-74 0 -130 53 -130 127c0 99 94 185 188 185c80 0 124 -57 124 -125
c0 -46 -20 -93 -52 -128c66 4 84 60 114 118l11 -6c-26 -52 -55 -124 -133 -124h-5c-32 -29 -72 -47 -117 -47z" />
    <glyph glyph-name="p" unicode="p" horiz-adv-x="373" 
d="M94 40c21 -26 37 -34 76 -34c25 0 47 15 65 40c-11 0 -12 7 -12 11c0 6 5 11 11 11c2 0 2 0 12 -5c13 22 35 77 35 128c0 56 -29 97 -77 97c-36 0 -68 -8 -94 -30c-5 -40 -20 -121 -35 -201c7 -3 13 -9 19 -17zM12 37l24 131l-6 3l10 19c11 65 13 97 13 110h31
c13 0 25 0 26 -2c2 -5 2 -8 2 -19c25 18 55 27 92 27c91 0 136 -56 136 -127c0 -50 -23 -96 -47 -125c60 8 80 61 109 117l12 -6c-26 -51 -57 -122 -133 -124c-29 -29 -67 -47 -111 -47c-42 0 -62 9 -86 38c-4 5 -8 9 -12 12c-23 -118 -68 -333 -96 -349c-2 0 -52 -1 -54 -1
c-9 0 -13 11 -13 27c0 170 61 275 103 316zM-77 -294c19 14 58 181 85 312c-26 -34 -87 -138 -87 -297c0 -6 1 -13 2 -15z" />
    <glyph glyph-name="q" unicode="q" horiz-adv-x="374" 
d="M340 300h14l-41 -212c47 6 64 31 91 83l11 -6c-23 -47 -44 -82 -104 -89l-65 -336c22 35 74 68 105 70l1 -12c-25 -4 -85 -34 -113 -99c-1 -2 -3 -4 -5 -4c0 0 -50 6 -54 7l69 366c-26 -42 -66 -74 -108 -74c-80 0 -123 56 -123 126c0 97 85 186 182 186
c59 0 85 -43 91 -43c10 0 29 37 49 37zM250 97c3 6 6 13 8 20l27 133c-21 24 -48 38 -85 38c-62 0 -124 -86 -124 -179c0 -58 27 -97 65 -97s76 26 100 67c-3 1 -15 3 -15 13c0 6 4 11 10 11c3 0 4 -2 14 -6z" />
    <glyph glyph-name="r" unicode="r" horiz-adv-x="340" 
d="M371 176l10 -6c-5 -10 -14 -34 -60 -34c-31 0 -57 27 -57 65c0 16 4 33 14 51c-39 -14 -94 -82 -138 -200l-10 -52h-60l35 183c7 37 17 75 17 93c0 6 -1 10 -4 10c-18 0 -25 -20 -77 -121l-11 6c50 98 64 135 91 135c37 0 47 -35 47 -75c0 -43 -12 -92 -14 -103l-2 -8
c30 65 74 135 146 186c15 11 40 18 46 18c7 0 12 -3 12 -7c-5 -46 -23 -68 -67 -71c-9 -16 -13 -32 -13 -46c0 -30 19 -51 45 -51c38 0 46 19 50 27z" />
    <glyph glyph-name="s" unicode="s" horiz-adv-x="318" 
d="M140 324l21 -34c-22 0 -57 0 -57 -32c0 -51 180 -102 180 -162c0 -10 -2 -20 -7 -30c33 20 49 62 71 105l11 -6c-22 -42 -44 -97 -93 -117c-24 -30 -71 -54 -142 -54c-72 0 -144 41 -144 84c0 22 2 45 35 45c26 0 48 -15 48 -27c0 -2 -2 -5 -5 -5c-5 0 -14 5 -21 5
c-6 0 -11 -4 -11 -18c0 -34 35 -66 98 -66c50 0 76 14 88 36c-6 1 -12 5 -12 12c0 6 4 11 10 11c3 0 4 0 9 -3c1 4 1 8 1 13c0 64 -131 105 -132 176l-47 -92l-11 6l67 131c9 15 24 22 43 22z" />
    <glyph glyph-name="t" unicode="t" horiz-adv-x="220" 
d="M111 504h45c7 0 12 -3 12 -7c-6 -19 -17 -73 -30 -137h110l-2 -18h-111l-43 -219c-3 -15 -9 -44 -9 -68c0 -23 5 -42 25 -42c23 0 70 18 113 101l29 57l11 -6l-28 -55c-37 -72 -80 -116 -136 -116c-51 0 -69 41 -69 88c0 30 7 57 13 83l-11 6c14 27 36 99 54 171h-66
l3 18h67c13 56 23 111 23 144z" />
    <glyph glyph-name="u" unicode="u" horiz-adv-x="415" 
d="M372 300l-35 -180c-7 -36 -14 -64 -14 -83c0 -16 5 -25 19 -25c21 0 51 57 74 102l29 57l11 -6l-28 -55c-48 -95 -61 -116 -117 -116c-34 0 -43 22 -43 53c0 23 5 51 10 77c-68 -92 -132 -130 -167 -130c-57 0 -80 37 -80 94c0 31 7 62 10 77l-11 6c22 44 40 90 44 117
h-18l2 12h62c7 0 12 -3 12 -7c-13 -43 -15 -48 -35 -149c-6 -34 -11 -65 -11 -88c0 -26 7 -44 25 -44c28 0 98 36 175 154c18 92 24 123 26 134h60z" />
    <glyph glyph-name="v" unicode="v" horiz-adv-x="378" 
d="M250 233c0 54 38 90 68 90c35 0 37 -42 37 -75c0 -29 -3 -67 -18 -101c8 -2 16 -3 23 -3c11 0 36 3 48 27l11 -6c-12 -24 -35 -33 -59 -33c-9 0 -19 1 -28 4c-47 -106 -141 -142 -188 -142c-44 0 -109 40 -109 120c0 16 3 30 6 51l-11 6c26 51 45 105 45 129h48
c3 0 4 -1 4 -2s-1 -3 -1 -5c-3 -20 -34 -160 -34 -200c0 -59 27 -81 57 -81c41 0 112 50 141 145c-23 18 -40 44 -40 76zM293 170c6 24 10 50 10 79c0 27 -7 38 -15 38c-12 0 -26 -24 -26 -54c0 -26 13 -48 31 -63z" />
    <glyph glyph-name="w" unicode="w" horiz-adv-x="499" 
d="M75 300h48c3 0 4 -1 4 -2s-1 -3 -1 -5l-29 -149c-4 -23 -8 -49 -8 -72c0 -34 8 -60 35 -60c63 0 81 115 100 208h60l-15 -76c-7 -36 -9 -58 -9 -73c0 -42 14 -59 40 -59c41 0 93 48 114 142c-25 18 -43 46 -43 79c0 54 38 90 68 90c34 0 37 -35 37 -72
c0 -30 -4 -69 -19 -104c8 -2 16 -3 23 -3c11 0 36 3 48 27l12 -6c-12 -24 -36 -33 -60 -33c-9 0 -18 1 -27 4c-46 -106 -112 -142 -159 -142c-29 0 -58 17 -75 51c-27 -33 -61 -51 -104 -51c-41 0 -82 36 -82 109c0 25 3 38 8 62l-11 6c26 51 45 105 45 129zM417 167
c5 24 7 52 7 82c0 27 -7 38 -15 38c-12 0 -26 -24 -26 -54c0 -27 15 -50 34 -66z" />
    <glyph glyph-name="x" unicode="x" horiz-adv-x="375" 
d="M81 12c19 0 34 2 48 18c22 25 40 66 57 109l-1 5c-17 89 -23 144 -51 144c-24 0 -43 -26 -93 -123l-11 6c54 107 71 135 106 135c41 0 67 -20 88 -78l7 14c22 46 53 64 87 64s66 -27 66 -66c0 -17 -14 -28 -28 -28c-15 0 -27 13 -27 28c0 31 -3 48 -17 48
c-26 0 -50 -22 -65 -54c-5 -10 -10 -20 -15 -31c5 -17 9 -37 14 -60c18 -91 17 -131 43 -131c20 0 48 26 88 104l28 55l11 -6l-34 -67c-34 -66 -64 -104 -93 -104c-45 0 -74 18 -97 115c-15 -35 -31 -67 -50 -90c-16 -18 -39 -25 -61 -25c-26 0 -62 17 -62 57h18
c0 -32 32 -39 44 -39z" />
    <glyph glyph-name="y" unicode="y" horiz-adv-x="408" 
d="M371 300c-3 -14 -7 -36 -35 -180l-16 -84c43 34 83 77 117 135l12 -6c-39 -65 -85 -113 -133 -149l-40 -210c-20 -104 -126 -112 -154 -112c-110 0 -152 76 -152 108c0 96 139 106 280 187l25 131c-67 -90 -130 -126 -164 -126c-57 0 -80 37 -80 94c0 31 5 54 10 77
l-11 6c22 44 40 90 44 117h-18l2 12h62c7 0 12 -3 12 -7c-13 -43 -15 -48 -35 -149c-6 -34 -11 -65 -11 -88c0 -26 7 -44 25 -44c28 0 97 35 173 150l27 138h60zM247 -29c-133 -74 -259 -86 -259 -169c0 -20 32 -90 134 -90c24 0 76 3 89 72z" />
    <glyph glyph-name="z" unicode="z" horiz-adv-x="336" 
d="M342 297l-248 -219c58 -2 90 -38 162 -38c8 0 44 1 61 35l49 96l11 -6l-55 -106c-33 -65 -67 -65 -80 -65c-84 0 -101 39 -181 39c-11 0 -25 -7 -55 -37l-16 10c20 30 42 58 76 72l167 147c-66 15 -101 37 -124 37c-13 0 -23 -7 -32 -26l-36 -71l-11 6
c71 140 74 140 89 140c31 0 87 -34 139 -34c21 0 41 6 58 21l14 13z" />
    <glyph glyph-name="braceleft" unicode="{" horiz-adv-x="298" 
d="M164 -227c-119 22 -128 111 -128 140c0 47 52 163 52 210c0 24 -40 60 -40 78s62 49 69 75c32 138 29 224 71 273c33 38 70 54 108 54c10 0 20 -1 30 -3l-4 -18c-8 2 -16 2 -23 2c-30 0 -56 -13 -78 -46c-32 -46 -23 -131 -51 -268c-5 -24 -86 -57 -86 -73
c0 -17 58 -52 58 -75c0 -46 -57 -164 -57 -209c0 -90 42 -114 83 -122z" />
    <glyph glyph-name="bar" unicode="|" horiz-adv-x="136" 
d="M200 590c-6 -34 -164 -842 -172 -884l-22 4c7 36 164 845 172 884z" />
    <glyph glyph-name="braceright" unicode="}" horiz-adv-x="340" 
d="M210 600c117 -22 127 -108 127 -139c0 -47 -51 -165 -51 -211c0 -24 40 -59 40 -77c0 -16 -63 -51 -69 -75c-32 -138 -29 -224 -71 -273c-33 -38 -70 -54 -108 -54c-10 0 -20 1 -30 3l4 17c8 -2 16 -2 23 -2c30 0 55 14 78 47c32 46 23 130 51 267c5 24 86 58 86 74
c0 17 -58 51 -58 74c0 45 56 165 56 210c0 91 -41 113 -82 121z" />
    <glyph glyph-name="asciitilde" unicode="~" horiz-adv-x="382" 
d="M54 186c33 64 57 83 81 83c25 0 129 -35 165 -35c26 0 38 13 56 45l16 -7c-33 -68 -63 -89 -101 -89c-47 0 -119 34 -149 34c-20 0 -33 -11 -52 -38z" />
    <glyph glyph-name="uni00A0" unicode="&#xa0;" horiz-adv-x="200" 
 />
    <glyph glyph-name="exclamdown" unicode="&#xa1;" horiz-adv-x="260" 
d="M146 298c-14 0 -24 11 -24 25c0 20 20 35 36 35c14 0 24 -11 24 -25c0 -20 -20 -35 -36 -35zM112 -236h-66c17 86 93 306 93 404v18h18v-12c0 -107 -29 -330 -45 -410z" />
    <glyph glyph-name="cent" unicode="&#xa2;" horiz-adv-x="348" 
d="M174 48c52 3 90 26 125 65l9 -9c-40 -47 -77 -71 -137 -74l-7 -34l-22 2l6 32c-66 5 -108 55 -108 119c0 65 51 183 168 192l8 41l23 -4l-7 -36c53 -3 84 -26 84 -64v-5h-54c0 5 1 9 1 17c0 24 -14 33 -35 34zM152 48l52 274c-75 -15 -106 -143 -106 -192
c0 -46 19 -78 54 -82z" />
    <glyph glyph-name="sterling" unicode="&#xa3;" horiz-adv-x="613" 
d="M566 114l12 -4c-36 -72 -79 -116 -135 -116c-92 0 -135 58 -192 79c-43 -51 -97 -77 -133 -77c-24 0 -40 11 -40 34c0 27 41 68 131 68c23 41 22 44 42 155h-113l5 23h112l31 162c14 73 76 106 136 106c67 0 133 -40 133 -106h-12c0 47 -49 86 -99 86
c-43 0 -87 -28 -102 -104l-27 -144h153l-5 -22h-152c-24 -133 -29 -138 -47 -164c75 -21 100 -76 198 -76c39 10 71 36 104 100zM199 81c-81 -2 -109 -30 -109 -51c0 -13 8 -21 21 -21c21 0 55 21 88 72z" />
    <glyph glyph-name="currency" unicode="&#xa4;" horiz-adv-x="372" 
d="M134 239c0 -42 30 -72 72 -72c54 0 107 48 107 105c0 41 -30 71 -73 71c-53 0 -106 -48 -106 -104zM163 330c23 19 52 31 81 31s53 -12 69 -31l41 28l16 -16l-46 -31c5 -11 7 -23 7 -36c0 -30 -13 -58 -33 -80l52 -52l-19 -12l-49 48c-23 -19 -51 -30 -80 -30
s-54 12 -69 32l-33 -22l-16 17l37 25c-4 10 -6 22 -6 34c0 16 5 48 31 79l-46 46l20 13z" />
    <glyph glyph-name="brokenbar" unicode="&#xa6;" horiz-adv-x="136" 
d="M95 50l-67 -344l-22 4l66 340h23zM113 260l65 334l22 -4c-2 -14 -31 -160 -64 -330h-23z" />
    <glyph glyph-name="section" unicode="&#xa7;" horiz-adv-x="468" 
d="M290 564c-63 0 -95 -47 -95 -97c0 -128 239 -145 239 -304c0 -82 -97 -135 -195 -142c13 -11 25 -23 35 -36c36 -48 33 -86 34 -100c0 -59 -70 -115 -154 -115c-81 0 -118 43 -118 87c0 13 3 27 10 39l16 -9c-5 -10 -8 -21 -8 -31c0 -33 28 -68 100 -68c64 0 94 47 94 97
c0 128 -238 144 -238 303c0 83 97 135 196 142c-13 11 -26 24 -36 37c-36 48 -33 86 -34 100c0 59 70 115 154 115c81 0 118 -43 118 -87c0 -13 -3 -27 -10 -39l-16 8c5 10 8 21 8 31c0 33 -28 69 -100 69zM218 38c72 1 156 43 156 125c0 67 -80 100 -147 150
c-72 0 -157 -42 -157 -125c0 -67 81 -100 148 -150z" />
    <glyph glyph-name="dieresis" unicode="&#xa8;" 
d="M167 486c17 0 31 -14 31 -30c0 -23 -24 -42 -44 -42c-17 0 -30 13 -30 29c0 20 20 43 43 43zM299 486c17 0 31 -14 31 -30c0 -23 -24 -42 -44 -42c-17 0 -30 13 -30 29c0 20 20 43 43 43z" />
    <glyph glyph-name="copyright" unicode="&#xa9;" horiz-adv-x="688" 
d="M489 316c0 33 -23 61 -78 61c-138 0 -165 -163 -165 -242c0 -74 31 -134 108 -134c46 0 96 27 123 80l8 -5c-33 -64 -89 -88 -141 -88c-108 0 -139 82 -139 157c0 65 28 245 206 245c61 0 86 -35 86 -73zM418 458c-185 0 -352 -170 -352 -346c0 -130 98 -230 236 -230
c185 0 352 170 352 346c0 130 -98 230 -236 230zM302 -130c-146 0 -248 105 -248 243c0 182 172 357 364 357c146 0 248 -105 248 -243c0 -182 -172 -357 -364 -357z" />
    <glyph glyph-name="ordfeminine" unicode="&#xaa;" horiz-adv-x="358" 
d="M329 546h13l-25 -130c-3 -15 -7 -36 -7 -52s5 -24 17 -24c22 0 42 27 55 48l10 -6c-32 -50 -51 -53 -72 -54c-34 0 -49 23 -50 52c-19 -31 -49 -52 -81 -52c-56 0 -88 39 -88 88c0 68 62 130 130 130c41 0 59 -30 63 -30c7 0 21 30 35 30zM270 414l18 93
c-15 17 -31 27 -57 27c-43 0 -85 -61 -85 -126c0 -41 16 -68 43 -68c34 0 67 31 81 74z" />
    <glyph glyph-name="guillemotleft" unicode="&#xab;" horiz-adv-x="349" 
d="M183 282c5 -6 3 -12 3 -18c-36 -26 -82 -84 -83 -92c0 -6 27 -62 57 -89c0 -6 -2 -17 -4 -19c-31 26 -45 40 -76 76c-12 14 -20 22 -20 28c0 10 14 20 24 30c37 40 68 66 99 84zM298 282c5 -6 2 -12 2 -18c-36 -26 -82 -84 -83 -92c0 -6 28 -62 58 -89
c0 -6 -3 -17 -5 -19c-31 26 -44 40 -75 76c-12 14 -20 22 -20 28c0 11 14 21 23 30c37 40 69 66 100 84z" />
    <glyph glyph-name="registered" unicode="&#xae;" horiz-adv-x="688" 
d="M302 -130c-146 0 -248 105 -248 243c0 182 172 357 364 357c146 0 248 -105 248 -243c0 -182 -172 -357 -364 -357zM418 458c-185 0 -352 -170 -352 -346c0 -130 98 -230 236 -230c185 0 352 170 352 346c0 130 -98 230 -236 230zM407 400c60 0 123 -51 123 -108
c0 -55 -53 -118 -130 -118h-10c41 -69 66 -168 105 -168c19 0 32 8 43 24l8 -6c-14 -21 -28 -31 -51 -31c-69 0 -117 130 -158 185c-2 3 -3 6 -3 9c0 9 10 15 20 20l10 2c6 -7 14 -23 36 -23c82 0 88 84 88 112c0 46 -35 90 -88 90c-43 0 -68 -6 -88 -16
c20 -30 25 -60 25 -79v-2c0 -15 -1 -12 -42 -222c-10 -51 -54 -76 -96 -76c-47 0 -93 28 -93 74h9c0 -33 34 -60 69 -60c30 0 61 21 71 74l42 215c2 8 5 23 5 39c0 9 -1 20 -4 29c-37 -26 -81 -70 -81 -135c0 -29 9 -55 26 -72l-6 -6c-18 18 -29 46 -29 78
c0 68 45 112 87 143c-5 11 -13 21 -25 30l6 7c12 -9 22 -19 30 -29c22 13 50 20 101 20z" />
    <glyph glyph-name="macron" unicode="&#xaf;" horiz-adv-x="295" 
d="M234 428c-35 0 -108 -1 -150 -1l6 35h151z" />
    <glyph glyph-name="degree" unicode="&#xb0;" horiz-adv-x="267" 
d="M150 443c33 0 48 35 48 61c0 15 0 36 -26 36c-32 0 -52 -34 -52 -60c0 -22 9 -37 30 -37zM96 480c0 34 38 72 76 72c30 0 50 -22 50 -48c0 -32 -32 -73 -72 -73c-28 0 -54 21 -54 49z" />
    <glyph glyph-name="plusminus" unicode="&#xb1;" horiz-adv-x="492" 
d="M397 8c-35 0 -283 -1 -325 -1l5 23h325zM265 264c13 68 26 135 30 154h23c-3 -17 -16 -85 -30 -154h156l-5 -22h-155l-28 -144h-23l28 143h-147l5 23h146z" />
    <glyph glyph-name="uni00B2" unicode="&#xb2;" horiz-adv-x="332" 
d="M141 519l-11 5c18 41 56 58 92 58c38 0 74 -20 74 -57c0 -99 -134 -168 -158 -189c40 0 87 -27 130 -27c6 0 26 1 33 16l9 15l12 -6c-21 -41 -36 -58 -53 -58c-59 0 -103 28 -159 28c-8 0 -17 -5 -38 -26l-9 8l33 29c46 46 165 143 165 216c0 25 -22 39 -48 39
c-28 0 -58 -17 -72 -51z" />
    <glyph glyph-name="uni00B3" unicode="&#xb3;" horiz-adv-x="348" 
d="M150 525c23 55 68 57 94 57c43 0 71 -28 71 -57c0 -34 -20 -65 -63 -88c54 -13 86 -62 86 -105c0 -63 -57 -110 -148 -110c-56 0 -104 25 -112 89l12 4c7 -55 49 -81 99 -81c87 0 109 56 109 109c0 37 -22 77 -68 83c-16 -6 -32 -10 -50 -10c-16 0 -22 3 -22 6
c0 6 34 17 67 17h1c37 22 56 58 56 92c0 22 -17 39 -42 39c-42 0 -66 -20 -79 -50z" />
    <glyph glyph-name="acute" unicode="&#xb4;" horiz-adv-x="220" 
d="M82 403c23 28 54 56 98 87c15 11 23 18 29 18c7 0 11 -3 11 -7c-6 -54 -14 -49 -59 -65c-20 -7 -40 -16 -61 -38c-7 0 -14 0 -18 5z" />
    <glyph glyph-name="uni00B5" unicode="&#xb5;" horiz-adv-x="418" 
d="M40 300h72h8c7 0 12 -3 12 -7c-28 -91 -46 -202 -46 -237c0 -26 7 -44 25 -44c28 0 98 36 175 154c18 92 24 123 26 134h60l-35 -180c-7 -36 -14 -64 -14 -83c0 -16 5 -25 19 -25c16 0 36 31 54 65l12 -6c-33 -62 -50 -77 -97 -77c-34 0 -43 22 -43 53c0 23 5 51 10 77
c-68 -92 -132 -130 -167 -130c-41 0 -61 15 -71 46c-17 -52 -25 -96 -25 -128c0 -18 3 -33 8 -43c22 -1 37 -16 37 -39c0 -28 -23 -63 -29 -63c-16 0 -39 51 -39 109c0 43 13 103 45 270l28 142h-27z" />
    <glyph glyph-name="paragraph" unicode="&#xb6;" horiz-adv-x="593" 
d="M332 557c-155 0 -182 -182 -182 -229c0 -78 38 -157 137 -165l54 275c4 20 6 38 6 54c0 33 -7 47 -15 65zM338 576c63 0 92 1 153 4c56 90 179 96 186 96l3 -12c-53 0 -128 -19 -165 -110c-30 -87 -19 -221 -47 -394l-65 -340h-60l59 303c38 195 34 336 74 428
c-42 6 -66 6 -115 6c19 -30 37 -77 37 -113c0 -12 -1 -26 -4 -39l-114 -585h-60l63 324c-128 4 -192 102 -192 195c0 104 82 237 247 237z" />
    <glyph glyph-name="periodcentered" unicode="&#xb7;" horiz-adv-x="240" 
d="M150 276c14 0 24 -11 24 -25c0 -20 -20 -35 -36 -35c-14 0 -24 11 -24 25c0 20 20 35 36 35z" />
    <glyph glyph-name="cedilla" unicode="&#xb8;" horiz-adv-x="420" 
d="M81 -218c40 6 117 48 117 100c0 27 -17 51 -37 51c-17 0 -36 -7 -45 -13l-14 10l22 74l17 -5l-15 -55c10 4 23 7 35 7c35 0 73 -25 73 -69c0 -74 -113 -112 -150 -118z" />
    <glyph glyph-name="uni00B9" unicode="&#xb9;" horiz-adv-x="225" 
d="M106 274c15 96 30 208 44 237c8 17 14 27 23 37c-22 -10 -38 -21 -61 -28l-1 12c31 10 74 44 93 44c12 0 21 -10 21 -10c-9 -1 -34 -36 -40 -65c-11 -52 -25 -146 -38 -230z" />
    <glyph glyph-name="ordmasculine" unicode="&#xba;" horiz-adv-x="274" 
d="M194 328c-52 0 -93 37 -93 89c0 69 67 129 133 129c56 0 89 -39 89 -87c0 -66 -59 -131 -129 -131zM282 487c0 27 -10 47 -48 47c-80 0 -90 -106 -90 -140c0 -33 12 -54 50 -54c85 0 88 136 88 147z" />
    <glyph glyph-name="guillemotright" unicode="&#xbb;" horiz-adv-x="349" 
d="M192 64c-4 4 -4 9 -4 13v5c36 26 82 84 83 92c0 6 -27 62 -57 89c0 6 3 17 5 19c31 -26 44 -40 75 -76c12 -14 20 -22 20 -28c0 -11 -14 -21 -23 -30c-37 -40 -68 -66 -99 -84zM77 64c-3 3 -3 7 -3 10v8c36 26 82 84 83 92c0 6 -27 62 -57 89c0 6 2 17 4 19
c31 -26 45 -40 76 -76c12 -14 19 -22 19 -28c0 -11 -15 -23 -22 -30c-37 -40 -69 -66 -100 -84z" />
    <glyph glyph-name="questiondown" unicode="&#xbf;" horiz-adv-x="382" 
d="M330 -99c0 39 -23 69 -35 77l6 10c16 -10 41 -44 41 -87c0 -65 -66 -143 -169 -143c-94 0 -142 71 -142 117c0 108 202 181 202 293v18h18v-12c0 -125 -161 -190 -161 -307c0 -38 19 -91 86 -91c99 0 154 71 154 125zM240 298c-14 0 -24 11 -24 25c0 20 20 35 36 35
c14 0 24 -11 24 -25c0 -20 -20 -35 -36 -35z" />
    <glyph glyph-name="Agrave" unicode="&#xc0;" horiz-adv-x="602" 
d="M434 638c-2 -2 -14 -2 -20 -2c-16 24 -35 34 -46 40c-30 18 -38 16 -38 35c0 7 1 16 2 30c0 4 4 5 12 5c6 0 13 -9 25 -23c32 -36 43 -50 65 -85zM472 117c8 -74 17 -105 41 -105c18 0 54 30 91 102l28 57l11 -6l-28 -55c-46 -90 -88 -116 -121 -116
c-47 0 -74 57 -80 107l-9 85h-177c-26 -55 -51 -105 -71 -139c-19 -33 -44 -53 -74 -53c-32 0 -58 30 -58 55c0 3 1 6 2 9l11 -3c-1 -1 -1 -4 -1 -6c0 -17 19 -43 46 -43c16 0 36 13 58 51c19 33 42 78 66 129h-26l5 24h32c59 126 122 275 138 329c-11 23 -29 39 -56 51
l4 12c100 -39 129 -124 132 -154l26 -238h52l-5 -24h-45zM402 210l-26 243c-2 22 -5 41 -10 58c-23 -66 -76 -191 -127 -301h163z" />
    <glyph glyph-name="Aacute" unicode="&#xc1;" horiz-adv-x="602" 
d="M345 641c23 28 54 56 98 87c15 11 22 18 28 18c7 0 12 -3 12 -7c-6 -54 -15 -49 -60 -65c-20 -7 -39 -16 -60 -38c-7 0 -14 1 -18 5zM472 117c8 -74 17 -105 41 -105c18 0 54 30 91 102l28 57l11 -6l-28 -55c-46 -90 -88 -116 -121 -116c-47 0 -74 57 -80 107l-9 85h-177
c-26 -55 -51 -105 -71 -139c-19 -33 -44 -53 -74 -53c-32 0 -58 30 -58 55c0 3 1 6 2 9l11 -3c-1 -1 -1 -4 -1 -6c0 -17 19 -43 46 -43c16 0 36 13 58 51c19 33 42 78 66 129h-26l5 24h32c59 126 122 275 138 329c-11 23 -29 39 -56 51l4 12c100 -39 129 -124 132 -154
l26 -238h52l-5 -24h-45zM402 210l-26 243c-2 22 -5 41 -10 58c-23 -66 -76 -191 -127 -301h163z" />
    <glyph glyph-name="Acircumflex" unicode="&#xc2;" horiz-adv-x="602" 
d="M282 641c23 28 54 56 98 87c16 12 22 18 28 18h4c6 0 13 -9 25 -23c32 -36 43 -50 65 -85c-2 -2 -14 -2 -20 -2c-22 32 -76 57 -82 57c-8 0 -69 -25 -101 -57c-6 0 -13 1 -17 5zM472 117c8 -74 17 -105 41 -105c18 0 54 30 91 102l28 57l11 -6l-28 -55
c-46 -90 -88 -116 -121 -116c-47 0 -74 57 -80 107l-9 85h-177c-26 -55 -51 -105 -71 -139c-19 -33 -44 -53 -74 -53c-32 0 -58 30 -58 55c0 3 1 6 2 9l11 -3c-1 -1 -1 -4 -1 -6c0 -17 19 -43 46 -43c16 0 36 13 58 51c19 33 42 78 66 129h-26l5 24h32
c59 126 122 275 138 329c-11 23 -29 39 -56 51l4 12c100 -39 129 -124 132 -154l26 -238h52l-5 -24h-45zM402 210l-26 243c-2 22 -5 41 -10 58c-23 -66 -76 -191 -127 -301h163z" />
    <glyph glyph-name="Atilde" unicode="&#xc3;" horiz-adv-x="602" 
d="M465 702c23 0 36 16 57 45l17 -8c-34 -66 -59 -89 -83 -89c-18 0 -102 30 -123 30c-23 0 -35 -15 -56 -44l-17 8c34 66 60 89 84 89c18 0 97 -31 121 -31zM472 117c8 -74 17 -105 41 -105c18 0 54 30 91 102l28 57l11 -6l-28 -55c-46 -90 -88 -116 -121 -116
c-47 0 -74 57 -80 107l-9 85h-177c-26 -55 -51 -105 -71 -139c-19 -33 -44 -53 -74 -53c-32 0 -58 30 -58 55c0 3 1 6 2 9l11 -3c-1 -1 -1 -4 -1 -6c0 -17 19 -43 46 -43c16 0 36 13 58 51c19 33 42 78 66 129h-26l5 24h32c59 126 122 275 138 329c-11 23 -29 39 -56 51
l4 12c100 -39 129 -124 132 -154l26 -238h52l-5 -24h-45zM402 210l-26 243c-2 22 -5 41 -10 58c-23 -66 -76 -191 -127 -301h163z" />
    <glyph glyph-name="Adieresis" unicode="&#xc4;" horiz-adv-x="602" 
d="M337 724c17 0 31 -14 31 -30c0 -23 -24 -42 -44 -42c-17 0 -30 13 -30 29c0 20 20 43 43 43zM469 724c17 0 31 -14 31 -30c0 -23 -24 -42 -44 -42c-17 0 -30 13 -30 29c0 20 20 43 43 43zM472 117c8 -74 17 -105 41 -105c18 0 54 30 91 102l28 57l11 -6l-28 -55
c-46 -90 -88 -116 -121 -116c-47 0 -74 57 -80 107l-9 85h-177c-26 -55 -51 -105 -71 -139c-19 -33 -44 -53 -74 -53c-32 0 -58 30 -58 55c0 3 1 6 2 9l11 -3c-1 -1 -1 -4 -1 -6c0 -17 19 -43 46 -43c16 0 36 13 58 51c19 33 42 78 66 129h-26l5 24h32
c59 126 122 275 138 329c-11 23 -29 39 -56 51l4 12c100 -39 129 -124 132 -154l26 -238h52l-5 -24h-45zM402 210l-26 243c-2 22 -5 41 -10 58c-23 -66 -76 -191 -127 -301h163z" />
    <glyph glyph-name="Aring" unicode="&#xc5;" horiz-adv-x="602" 
d="M397 630c27 0 50 30 50 61c0 20 -8 37 -29 37c-27 0 -50 -30 -50 -63c0 -19 9 -35 29 -35zM420 746c33 0 52 -25 52 -55c0 -39 -28 -67 -55 -76l19 -167l26 -238h52l-5 -24h-45l8 -69c8 -74 17 -105 41 -105c18 0 54 30 91 102l28 57l11 -6l-28 -55
c-46 -90 -88 -116 -121 -116c-47 0 -74 57 -80 107l-9 85h-177c-26 -55 -51 -105 -71 -139c-19 -33 -44 -53 -74 -53c-32 0 -58 30 -58 55c0 3 0 5 1 8l12 -3c0 -2 -1 -3 -1 -5c0 -17 19 -43 46 -43c16 0 36 13 58 51c19 33 42 78 66 129h-23l5 24h29
c62 133 128 290 140 336c8 21 13 45 19 69c-21 8 -34 28 -34 53c0 43 38 78 77 78zM402 210l-26 243l-6 70c-21 -62 -77 -196 -131 -313h163z" />
    <glyph glyph-name="AE" unicode="&#xc6;" horiz-adv-x="808" 
d="M83 6c16 0 36 13 58 51c18 30 39 72 61 119h-16l5 24h23c61 131 127 288 143 341c-11 22 -29 38 -55 49l4 12c100 -39 129 -124 132 -154l20 -186c20 23 46 43 76 57c-18 22 -28 49 -28 80c0 90 87 183 188 183c85 0 127 -44 127 -100c0 -29 -11 -62 -34 -94l-9 8
c22 30 32 61 32 87c0 49 -37 81 -115 81c-118 0 -132 -155 -132 -194c0 -15 2 -27 6 -38c21 6 43 10 67 10c33 0 58 -14 58 -34c0 -24 -38 -38 -54 -38c-35 0 -65 12 -89 32c-70 -43 -79 -135 -79 -161c0 -85 72 -129 152 -129c72 0 149 35 190 114l24 45l11 -6l-23 -45
c-47 -91 -130 -126 -210 -126c-103 0 -201 60 -205 150l-3 32h-185c-24 -51 -48 -97 -66 -129c-19 -33 -44 -53 -74 -53c-32 0 -58 30 -58 55c0 3 0 5 1 8l12 -3c0 -2 -1 -3 -1 -5c0 -17 19 -43 46 -43zM577 315c12 -17 32 -27 64 -27c13 0 37 10 37 20c0 8 -20 16 -42 16
c-23 0 -42 -3 -59 -9zM405 200l-27 253c-3 23 -6 44 -11 61c-23 -67 -80 -200 -133 -314h171z" />
    <glyph glyph-name="Ccedilla" unicode="&#xc7;" horiz-adv-x="437" 
d="M174 -222c40 6 117 48 117 100c0 27 -17 51 -37 51c-17 0 -36 -7 -45 -13l-14 10l21 71c-130 18 -174 129 -174 231c0 101 57 354 294 354c87 0 123 -49 123 -104c0 -50 -30 -105 -81 -131l-5 11c44 22 74 73 74 118c0 47 -32 88 -111 88c-215 0 -235 -298 -235 -348
c0 -112 53 -204 167 -204c66 0 137 38 176 114l23 45l11 -6l-23 -45c-47 -91 -126 -126 -201 -126c-7 0 -14 1 -20 1l-15 -55c10 4 23 7 35 7c35 0 73 -25 73 -69c0 -74 -113 -112 -150 -118z" />
    <glyph glyph-name="Egrave" unicode="&#xc8;" horiz-adv-x="438" 
d="M396 638c-2 -2 -14 -2 -20 -2c-16 24 -35 34 -46 40c-30 18 -38 16 -38 35c0 7 1 16 2 30c0 4 4 5 12 5c6 0 13 -9 25 -23c32 -36 43 -50 65 -85zM408 396c22 30 32 61 32 87c0 49 -37 81 -115 81c-118 0 -132 -155 -132 -194c0 -15 2 -27 6 -38c21 6 43 10 67 10
c33 0 58 -14 58 -34c0 -24 -38 -38 -54 -38c-35 0 -65 12 -89 32c-70 -43 -79 -135 -79 -161c0 -85 72 -129 152 -129c72 0 149 35 190 114l24 45l11 -6l-23 -45c-47 -91 -130 -126 -210 -126c-105 0 -204 63 -204 156c0 65 49 134 122 169c-18 22 -28 49 -28 80
c0 90 87 183 188 183c85 0 127 -44 127 -100c0 -29 -11 -62 -34 -94zM207 315c12 -17 32 -27 64 -27c13 0 37 10 37 20c0 8 -20 16 -42 16c-23 0 -42 -3 -59 -9z" />
    <glyph glyph-name="Eacute" unicode="&#xc9;" horiz-adv-x="438" 
d="M307 641c23 28 54 56 98 87c15 11 22 18 28 18c7 0 12 -3 12 -7c-6 -54 -15 -49 -60 -65c-20 -7 -39 -16 -60 -38c-7 0 -14 1 -18 5zM408 396c22 30 32 61 32 87c0 49 -37 81 -115 81c-118 0 -132 -155 -132 -194c0 -15 2 -27 6 -38c21 6 43 10 67 10c33 0 58 -14 58 -34
c0 -24 -38 -38 -54 -38c-35 0 -65 12 -89 32c-70 -43 -79 -135 -79 -161c0 -85 72 -129 152 -129c72 0 149 35 190 114l24 45l11 -6l-23 -45c-47 -91 -130 -126 -210 -126c-105 0 -204 63 -204 156c0 65 49 134 122 169c-18 22 -28 49 -28 80c0 90 87 183 188 183
c85 0 127 -44 127 -100c0 -29 -11 -62 -34 -94zM207 315c12 -17 32 -27 64 -27c13 0 37 10 37 20c0 8 -20 16 -42 16c-23 0 -42 -3 -59 -9z" />
    <glyph glyph-name="Ecircumflex" unicode="&#xca;" horiz-adv-x="438" 
d="M244 641c23 28 54 56 98 87c16 12 22 18 28 18h4c6 0 13 -9 25 -23c32 -36 43 -50 65 -85c-2 -2 -14 -2 -20 -2c-22 32 -76 57 -82 57c-8 0 -69 -25 -101 -57c-6 0 -13 1 -17 5zM408 396c22 30 32 61 32 87c0 49 -37 81 -115 81c-118 0 -132 -155 -132 -194
c0 -15 2 -27 6 -38c21 6 43 10 67 10c33 0 58 -14 58 -34c0 -24 -38 -38 -54 -38c-35 0 -65 12 -89 32c-70 -43 -79 -135 -79 -161c0 -85 72 -129 152 -129c72 0 149 35 190 114l24 45l11 -6l-23 -45c-47 -91 -130 -126 -210 -126c-105 0 -204 63 -204 156
c0 65 49 134 122 169c-18 22 -28 49 -28 80c0 90 87 183 188 183c85 0 127 -44 127 -100c0 -29 -11 -62 -34 -94zM207 315c12 -17 32 -27 64 -27c13 0 37 10 37 20c0 8 -20 16 -42 16c-23 0 -42 -3 -59 -9z" />
    <glyph glyph-name="Edieresis" unicode="&#xcb;" horiz-adv-x="438" 
d="M300 724c17 0 31 -14 31 -30c0 -23 -24 -42 -44 -42c-17 0 -30 13 -30 29c0 20 20 43 43 43zM432 724c17 0 31 -14 31 -30c0 -23 -24 -42 -44 -42c-17 0 -30 13 -30 29c0 20 20 43 43 43zM408 396c22 30 32 61 32 87c0 49 -37 81 -115 81c-118 0 -132 -155 -132 -194
c0 -15 2 -27 6 -38c21 6 43 10 67 10c33 0 58 -14 58 -34c0 -24 -38 -38 -54 -38c-35 0 -65 12 -89 32c-70 -43 -79 -135 -79 -161c0 -85 72 -129 152 -129c72 0 149 35 190 114l24 45l11 -6l-23 -45c-47 -91 -130 -126 -210 -126c-105 0 -204 63 -204 156
c0 65 49 134 122 169c-18 22 -28 49 -28 80c0 90 87 183 188 183c85 0 127 -44 127 -100c0 -29 -11 -62 -34 -94zM207 315c12 -17 32 -27 64 -27c13 0 37 10 37 20c0 8 -20 16 -42 16c-23 0 -42 -3 -59 -9z" />
    <glyph glyph-name="Igrave" unicode="&#xcc;" horiz-adv-x="444" 
d="M346 638c-2 -2 -14 -2 -20 -2c-16 24 -35 34 -46 40c-30 18 -38 16 -38 35c0 7 1 16 2 30c0 4 4 5 12 5c6 0 13 -9 25 -23c32 -36 43 -50 65 -85zM316 47c72 0 127 64 158 124l11 -6c-26 -52 -91 -130 -169 -130c-7 0 -13 1 -20 2c-27 -29 -67 -43 -106 -43
c-67 0 -132 40 -132 106c0 56 57 116 84 130l5 -10c-26 -13 -77 -71 -77 -120c0 -47 48 -86 98 -86c27 0 54 11 74 38c-11 0 -12 7 -12 11c0 6 5 11 11 11c2 0 3 0 12 -5c7 14 13 30 17 50c44 223 52 349 75 392c-54 26 -115 63 -159 63c-50 0 -70 -14 -105 -83l-11 5
c36 72 60 96 116 96c50 0 114 -40 169 -66c38 54 77 79 105 79c23 0 38 -17 38 -50c0 -53 -40 -70 -72 -70c-9 0 -19 2 -30 5c-13 -36 -19 -129 -69 -390c-4 -20 -12 -38 -22 -52c4 -1 7 -1 11 -1zM403 506c8 -2 16 -3 23 -3c25 0 60 6 60 52c0 21 -5 35 -15 35
c-13 0 -36 -24 -68 -84z" />
    <glyph glyph-name="Iacute" unicode="&#xcd;" horiz-adv-x="444" 
d="M257 641c23 28 54 56 98 87c15 11 22 18 28 18c7 0 12 -3 12 -7c-6 -54 -15 -49 -60 -65c-20 -7 -39 -16 -60 -38c-7 0 -14 1 -18 5zM316 47c72 0 127 64 158 124l11 -6c-26 -52 -91 -130 -169 -130c-7 0 -13 1 -20 2c-27 -29 -67 -43 -106 -43c-67 0 -132 40 -132 106
c0 56 57 116 84 130l5 -10c-26 -13 -77 -71 -77 -120c0 -47 48 -86 98 -86c27 0 54 11 74 38c-11 0 -12 7 -12 11c0 6 5 11 11 11c2 0 3 0 12 -5c7 14 13 30 17 50c44 223 52 349 75 392c-54 26 -115 63 -159 63c-50 0 -70 -14 -105 -83l-11 5c36 72 60 96 116 96
c50 0 114 -40 169 -66c38 54 77 79 105 79c23 0 38 -17 38 -50c0 -53 -40 -70 -72 -70c-9 0 -19 2 -30 5c-13 -36 -19 -129 -69 -390c-4 -20 -12 -38 -22 -52c4 -1 7 -1 11 -1zM403 506c8 -2 16 -3 23 -3c25 0 60 6 60 52c0 21 -5 35 -15 35c-13 0 -36 -24 -68 -84z" />
    <glyph glyph-name="Icircumflex" unicode="&#xce;" horiz-adv-x="444" 
d="M193 641c23 28 54 56 98 87c16 12 22 18 28 18h4c6 0 13 -9 25 -23c32 -36 43 -50 65 -85c-2 -2 -14 -2 -20 -2c-22 32 -76 57 -82 57c-8 0 -69 -25 -101 -57c-6 0 -13 1 -17 5zM316 47c72 0 127 64 158 124l11 -6c-26 -52 -91 -130 -169 -130c-7 0 -13 1 -20 2
c-27 -29 -67 -43 -106 -43c-67 0 -132 40 -132 106c0 56 57 116 84 130l5 -10c-26 -13 -77 -71 -77 -120c0 -47 48 -86 98 -86c27 0 54 11 74 38c-11 0 -12 7 -12 11c0 6 5 11 11 11c2 0 3 0 12 -5c7 14 13 30 17 50c44 223 52 349 75 392c-54 26 -115 63 -159 63
c-50 0 -70 -14 -105 -83l-11 5c36 72 60 96 116 96c50 0 114 -40 169 -66c38 54 77 79 105 79c23 0 38 -17 38 -50c0 -53 -40 -70 -72 -70c-9 0 -19 2 -30 5c-13 -36 -19 -129 -69 -390c-4 -20 -12 -38 -22 -52c4 -1 7 -1 11 -1zM403 506c8 -2 16 -3 23 -3c25 0 60 6 60 52
c0 21 -5 35 -15 35c-13 0 -36 -24 -68 -84z" />
    <glyph glyph-name="Idieresis" unicode="&#xcf;" horiz-adv-x="444" 
d="M249 724c17 0 31 -14 31 -30c0 -23 -24 -42 -44 -42c-17 0 -30 13 -30 29c0 20 20 43 43 43zM381 724c17 0 31 -14 31 -30c0 -23 -24 -42 -44 -42c-17 0 -30 13 -30 29c0 20 20 43 43 43zM316 47c72 0 127 64 158 124l11 -6c-26 -52 -91 -130 -169 -130c-7 0 -13 1 -20 2
c-27 -29 -67 -43 -106 -43c-67 0 -132 40 -132 106c0 56 57 116 84 130l5 -10c-26 -13 -77 -71 -77 -120c0 -47 48 -86 98 -86c27 0 54 11 74 38c-11 0 -12 7 -12 11c0 6 5 11 11 11c2 0 3 0 12 -5c7 14 13 30 17 50c44 223 52 349 75 392c-54 26 -115 63 -159 63
c-50 0 -70 -14 -105 -83l-11 5c36 72 60 96 116 96c50 0 114 -40 169 -66c38 54 77 79 105 79c23 0 38 -17 38 -50c0 -53 -40 -70 -72 -70c-9 0 -19 2 -30 5c-13 -36 -19 -129 -69 -390c-4 -20 -12 -38 -22 -52c4 -1 7 -1 11 -1zM403 506c8 -2 16 -3 23 -3c25 0 60 6 60 52
c0 21 -5 35 -15 35c-13 0 -36 -24 -68 -84z" />
    <glyph glyph-name="Eth" unicode="&#xd0;" horiz-adv-x="667" 
d="M517 90c46 67 76 168 76 259c0 115 -46 215 -169 215c-45 0 -86 -8 -121 -23c33 -45 41 -92 41 -120c0 -6 0 -12 -1 -16l-20 -105h133l-2 -16h-135l-21 -110c-6 -33 -19 -61 -35 -84c43 -35 80 -78 137 -78c39 0 75 24 105 62c-3 2 -3 4 -3 7c0 5 5 11 10 11
c3 0 4 -1 5 -2zM212 103c-17 9 -35 14 -56 14c-76 0 -114 -49 -114 -81c0 -17 27 -24 47 -24c38 0 90 30 123 91zM249 578l7 10c14 -11 26 -22 36 -34c38 17 83 28 132 28c161 0 229 -115 229 -244c0 -93 -35 -193 -93 -261c70 1 106 35 137 94l11 -6
c-26 -52 -73 -100 -151 -100h-7c-41 -43 -92 -71 -150 -71c-65 0 -104 45 -148 81c-49 -59 -121 -81 -158 -81c-32 0 -64 14 -64 42c0 40 44 99 126 99c24 0 45 -6 64 -16c8 17 14 36 18 57l22 108h-66l4 16h65l25 126c4 21 7 40 7 57c0 18 -3 35 -9 50
c-89 -44 -142 -127 -142 -203c0 -38 14 -74 42 -102l-8 -8c-31 31 -46 70 -46 111c0 80 54 169 146 216c-7 11 -17 22 -29 31z" />
    <glyph glyph-name="Ntilde" unicode="&#xd1;" horiz-adv-x="640" 
d="M518 702c23 0 36 16 57 45l17 -8c-34 -66 -59 -89 -83 -89c-18 0 -102 30 -123 30c-23 0 -35 -15 -56 -44l-17 8c34 66 60 89 84 89c18 0 97 -31 121 -31zM642 114l28 57l11 -6l-28 -55c-37 -72 -69 -116 -111 -116c-50 0 -103 34 -132 107l-140 352
c-12 27 -21 49 -29 66c-39 -216 -65 -343 -85 -418c-22 -85 -53 -107 -77 -107c-30 0 -47 27 -47 58h12c0 -29 15 -46 35 -46c25 0 43 37 59 98c19 75 46 207 89 440c-14 21 -30 34 -57 46l4 12c61 -25 122 -68 156 -146l139 -351l14 -37l81 416c16 74 73 98 121 98
c2 -3 4 -16 4 -29c0 -11 -1 -21 -4 -25c-12 0 -32 9 -52 9c-22 0 -43 -11 -52 -55l-86 -440c11 -20 25 -36 45 -36c32 0 63 32 102 108z" />
    <glyph glyph-name="Ograve" unicode="&#xd2;" horiz-adv-x="606" 
d="M432 638c-2 -2 -14 -2 -20 -2c-16 24 -35 34 -46 40c-30 18 -38 16 -38 35c0 7 1 16 2 30c0 4 4 5 12 5c6 0 13 -9 25 -23c32 -36 43 -50 65 -85zM514 60c70 0 95 57 122 111l11 -6c-26 -52 -55 -117 -133 -117c-23 0 -44 4 -61 8c-52 -38 -117 -62 -191 -62
c-141 0 -221 88 -221 224c0 187 131 364 337 364c140 0 221 -87 221 -224c0 -113 -48 -222 -131 -291c14 -4 29 -7 46 -7zM378 564c-224 0 -280 -248 -280 -375c0 -108 46 -177 164 -177c65 0 116 22 156 55c-8 4 -19 5 -19 15c0 6 4 11 10 11c5 0 8 -2 25 -12
c83 83 108 222 108 305c0 109 -47 178 -164 178z" />
    <glyph glyph-name="Oacute" unicode="&#xd3;" horiz-adv-x="606" 
d="M344 641c23 28 54 56 98 87c15 11 23 18 29 18c7 0 11 -3 11 -7c-6 -54 -14 -49 -59 -65c-20 -7 -40 -16 -61 -38c-7 0 -14 0 -18 5zM514 60c70 0 95 57 122 111l11 -6c-26 -52 -55 -117 -133 -117c-23 0 -44 4 -61 8c-52 -38 -117 -62 -191 -62c-141 0 -221 88 -221 224
c0 187 131 364 337 364c140 0 221 -87 221 -224c0 -113 -48 -222 -131 -291c14 -4 29 -7 46 -7zM378 564c-224 0 -280 -248 -280 -375c0 -108 46 -177 164 -177c65 0 116 22 156 55c-8 4 -19 5 -19 15c0 6 4 11 10 11c5 0 8 -2 25 -12c83 83 108 222 108 305
c0 109 -47 178 -164 178z" />
    <glyph glyph-name="Ocircumflex" unicode="&#xd4;" horiz-adv-x="606" 
d="M278 641c23 28 54 56 98 87c16 12 22 18 28 18h4c6 0 13 -9 25 -23c32 -36 43 -50 65 -85c-2 -2 -14 -2 -20 -2c-22 32 -76 57 -82 57c-8 0 -69 -25 -101 -57c-6 0 -13 1 -17 5zM514 60c70 0 95 57 122 111l11 -6c-26 -52 -55 -117 -133 -117c-23 0 -44 4 -61 8
c-52 -38 -117 -62 -191 -62c-141 0 -221 88 -221 224c0 187 131 364 337 364c140 0 221 -87 221 -224c0 -113 -48 -222 -131 -291c14 -4 29 -7 46 -7zM378 564c-224 0 -280 -248 -280 -375c0 -108 46 -177 164 -177c65 0 116 22 156 55c-8 4 -19 5 -19 15c0 6 4 11 10 11
c5 0 8 -2 25 -12c83 83 108 222 108 305c0 109 -47 178 -164 178z" />
    <glyph glyph-name="Otilde" unicode="&#xd5;" horiz-adv-x="606" 
d="M464 702c23 0 36 16 57 45l17 -8c-34 -66 -59 -89 -83 -89c-18 0 -102 30 -123 30c-23 0 -35 -15 -56 -44l-17 8c34 66 60 89 84 89c18 0 97 -31 121 -31zM514 60c70 0 95 57 122 111l11 -6c-26 -52 -55 -117 -133 -117c-23 0 -44 4 -61 8c-52 -38 -117 -62 -191 -62
c-141 0 -221 88 -221 224c0 187 131 364 337 364c140 0 221 -87 221 -224c0 -113 -48 -222 -131 -291c14 -4 29 -7 46 -7zM378 564c-224 0 -280 -248 -280 -375c0 -108 46 -177 164 -177c65 0 116 22 156 55c-8 4 -19 5 -19 15c0 6 4 11 10 11c5 0 8 -2 25 -12
c83 83 108 222 108 305c0 109 -47 178 -164 178z" />
    <glyph glyph-name="Odieresis" unicode="&#xd6;" horiz-adv-x="606" 
d="M337 724c17 0 31 -14 31 -30c0 -23 -24 -42 -44 -42c-17 0 -30 13 -30 29c0 20 20 43 43 43zM469 724c17 0 31 -14 31 -30c0 -23 -24 -42 -44 -42c-17 0 -30 13 -30 29c0 20 20 43 43 43zM514 60c70 0 95 57 122 111l11 -6c-26 -52 -55 -117 -133 -117c-23 0 -44 4 -61 8
c-52 -38 -117 -62 -191 -62c-141 0 -221 88 -221 224c0 187 131 364 337 364c140 0 221 -87 221 -224c0 -113 -48 -222 -131 -291c14 -4 29 -7 46 -7zM378 564c-224 0 -280 -248 -280 -375c0 -108 46 -177 164 -177c65 0 116 22 156 55c-8 4 -19 5 -19 15c0 6 4 11 10 11
c5 0 8 -2 25 -12c83 83 108 222 108 305c0 109 -47 178 -164 178z" />
    <glyph glyph-name="multiply" unicode="&#xd7;" horiz-adv-x="492" 
d="M275 270l131 88l16 -16l-130 -89l110 -110l-19 -12l-110 109l-121 -81l-16 17l120 81l-104 103l20 13z" />
    <glyph glyph-name="Oslash" unicode="&#xd8;" horiz-adv-x="606" 
d="M47 -30l-13 12l64 74c-37 39 -57 94 -57 162c0 187 131 364 337 364c58 0 106 -15 142 -42l58 66l13 -12l-57 -66c42 -39 65 -97 65 -170c0 -113 -48 -222 -131 -291c14 -4 29 -7 46 -7c70 0 95 57 122 111l11 -6c-26 -52 -55 -117 -133 -117c-23 0 -44 4 -61 8
c-52 -38 -117 -62 -191 -62c-63 0 -114 17 -151 49zM378 564c-224 0 -280 -248 -280 -375c0 -42 7 -78 23 -107l381 436c-26 29 -67 46 -124 46zM513 504l-382 -438c26 -35 68 -54 131 -54c65 0 116 22 156 55c-8 4 -19 5 -19 15c0 6 4 11 10 11c5 0 8 -2 25 -12
c83 83 108 222 108 305c0 48 -9 88 -29 118z" />
    <glyph glyph-name="Ugrave" unicode="&#xd9;" horiz-adv-x="505" 
d="M364 638c-2 -2 -14 -2 -20 -2c-16 24 -35 34 -46 40c-30 18 -38 16 -38 35c0 7 1 16 2 30c0 4 4 5 12 5c6 0 13 -9 25 -23c32 -36 43 -50 65 -85zM415 120c-7 -34 -13 -61 -13 -79c0 -17 6 -25 21 -25h1c21 1 59 53 82 98l29 57l11 -6l-28 -55
c-48 -95 -73 -116 -129 -116c-34 0 -43 22 -43 53c0 27 7 63 13 92c-68 -85 -144 -145 -185 -145c-74 0 -135 54 -135 168c0 144 82 245 82 350c0 38 -12 67 -44 92l7 10c71 -53 88 -124 88 -163c0 -59 -82 -189 -82 -320c0 -66 23 -119 94 -119c30 0 110 63 180 154l80 410
h60z" />
    <glyph glyph-name="Uacute" unicode="&#xda;" horiz-adv-x="505" 
d="M275 641c23 28 54 56 98 87c15 11 22 18 28 18c7 0 12 -3 12 -7c-6 -54 -15 -49 -60 -65c-20 -7 -39 -16 -60 -38c-7 0 -14 1 -18 5zM415 120c-7 -34 -13 -61 -13 -79c0 -17 6 -25 21 -25h1c21 1 59 53 82 98l29 57l11 -6l-28 -55c-48 -95 -73 -116 -129 -116
c-34 0 -43 22 -43 53c0 27 7 63 13 92c-68 -85 -144 -145 -185 -145c-74 0 -135 54 -135 168c0 144 82 245 82 350c0 38 -12 67 -44 92l7 10c71 -53 88 -124 88 -163c0 -59 -82 -189 -82 -320c0 -66 23 -119 94 -119c30 0 110 63 180 154l80 410h60z" />
    <glyph glyph-name="Ucircumflex" unicode="&#xdb;" horiz-adv-x="505" 
d="M211 641c23 28 54 56 98 87c16 12 22 18 28 18h4c6 0 13 -9 25 -23c32 -36 43 -50 65 -85c-2 -2 -14 -2 -20 -2c-22 32 -76 57 -82 57c-8 0 -69 -25 -101 -57c-6 0 -13 1 -17 5zM415 120c-7 -34 -13 -61 -13 -79c0 -17 6 -25 21 -25h1c21 1 59 53 82 98l29 57l11 -6
l-28 -55c-48 -95 -73 -116 -129 -116c-34 0 -43 22 -43 53c0 27 7 63 13 92c-68 -85 -144 -145 -185 -145c-74 0 -135 54 -135 168c0 144 82 245 82 350c0 38 -12 67 -44 92l7 10c71 -53 88 -124 88 -163c0 -59 -82 -189 -82 -320c0 -66 23 -119 94 -119
c30 0 110 63 180 154l80 410h60z" />
    <glyph glyph-name="Udieresis" unicode="&#xdc;" horiz-adv-x="505" 
d="M267 724c17 0 31 -14 31 -30c0 -23 -24 -42 -44 -42c-17 0 -30 13 -30 29c0 20 20 43 43 43zM399 724c17 0 31 -14 31 -30c0 -23 -24 -42 -44 -42c-17 0 -30 13 -30 29c0 20 20 43 43 43zM415 120c-7 -34 -13 -61 -13 -79c0 -17 6 -25 21 -25h1c21 1 59 53 82 98l29 57
l11 -6l-28 -55c-48 -95 -73 -116 -129 -116c-34 0 -43 22 -43 53c0 27 7 63 13 92c-68 -85 -144 -145 -185 -145c-74 0 -135 54 -135 168c0 144 82 245 82 350c0 38 -12 67 -44 92l7 10c71 -53 88 -124 88 -163c0 -59 -82 -189 -82 -320c0 -66 23 -119 94 -119
c30 0 110 63 180 154l80 410h60z" />
    <glyph glyph-name="Yacute" unicode="&#xdd;" horiz-adv-x="499" 
d="M275 641c23 28 54 56 98 87c15 11 22 18 28 18c7 0 12 -3 12 -7c-6 -54 -15 -49 -60 -65c-20 -7 -39 -16 -60 -38c-7 0 -14 1 -18 5zM366 -194c-20 -104 -122 -118 -152 -118c-110 0 -154 82 -154 114c0 96 141 106 282 187l29 148c-71 -98 -150 -143 -197 -143
c-74 0 -135 54 -135 168c0 142 82 245 82 350c0 38 -12 67 -44 92l7 10c71 -53 88 -124 88 -163c0 -64 -82 -184 -82 -320c0 -66 23 -119 94 -119c34 0 119 45 192 154l80 410h60l-105 -541c44 34 84 78 119 136l10 -6c-39 -65 -85 -112 -133 -148zM339 -28
c-134 -74 -261 -87 -261 -170c0 -20 34 -96 136 -96c24 0 76 17 88 78z" />
    <glyph glyph-name="Thorn" unicode="&#xde;" horiz-adv-x="592" 
d="M377 129c117 0 162 98 162 191c0 84 -36 166 -150 166c-17 0 -33 -2 -50 -6l-65 -323c16 -10 55 -28 103 -28zM270 138l-6 -33c39 -39 90 -64 149 -64c110 0 182 74 210 129l10 -6c-30 -59 -104 -135 -220 -135c-60 0 -112 25 -152 63c-18 -66 -79 -98 -136 -98
c-30 0 -59 9 -83 23l9 11c16 -9 35 -14 53 -14c43 0 88 29 103 105l6 32c-27 45 -42 96 -42 145c0 82 45 143 104 177l23 120l62 7c-7 -45 -13 -75 -18 -101c15 3 31 5 47 5c121 0 210 -74 210 -184c0 -119 -98 -209 -222 -209c-48 0 -89 16 -107 27zM217 169l54 284
c-51 -31 -88 -85 -88 -157c0 -43 13 -87 34 -127z" />
    <glyph glyph-name="germandbls" unicode="&#xdf;" horiz-adv-x="359" 
d="M21 -194c-20 -104 -124 -118 -152 -118c-4 0 -5 2 -5 5c0 4 2 9 5 13c24 0 75 9 88 78l42 216c58 300 58 368 82 552c7 48 36 54 92 54c51 0 117 -28 117 -95c0 -93 -120 -155 -120 -229c0 -52 154 -126 154 -186c0 -9 -1 -18 -3 -27c31 21 47 60 68 102l11 -6
c-20 -39 -41 -89 -84 -112c-14 -32 -48 -59 -122 -59c-72 0 -99 47 -99 90c0 12 10 18 21 18c21 0 23 -11 23 -25c0 -29 1 -65 55 -65c29 0 48 12 58 31c-6 0 -14 3 -14 11c0 6 5 12 11 12c3 0 2 0 10 -4c1 6 2 12 2 19c0 64 -109 129 -109 201c0 80 90 141 90 229
c0 57 -28 83 -69 83c-19 0 -54 -5 -56 -45c-6 -123 1 -249 -58 -549z" />
    <glyph glyph-name="agrave" unicode="&#xe0;" 
d="M264 400c-2 -2 -14 -2 -20 -2c-16 24 -35 34 -46 40c-30 18 -38 16 -38 35c0 7 1 16 2 30c0 4 4 5 12 5c6 0 13 -9 25 -23c32 -36 43 -50 65 -85zM356 300l-35 -180c-4 -22 -10 -51 -10 -74c0 -22 6 -39 24 -39c44 0 85 73 110 123l21 41l11 -6l-22 -41
c-64 -124 -97 -130 -131 -130c-48 0 -66 34 -68 75c-27 -44 -70 -75 -115 -75c-80 0 -123 56 -123 126c0 99 87 186 182 186c59 0 85 -43 91 -43c10 0 29 37 49 37h16zM285 250c-21 24 -48 38 -85 38c-63 0 -124 -88 -124 -179c0 -58 27 -97 65 -97c48 0 98 43 118 105z" />
    <glyph glyph-name="aacute" unicode="&#xe1;" 
d="M175 403c23 28 54 56 98 87c15 11 22 18 28 18c7 0 12 -3 12 -7c-6 -54 -15 -49 -60 -65c-20 -7 -39 -16 -60 -38c-7 0 -14 1 -18 5zM356 300l-35 -180c-4 -22 -10 -51 -10 -74c0 -22 6 -39 24 -39c44 0 85 73 110 123l21 41l11 -6l-22 -41c-64 -124 -97 -130 -131 -130
c-48 0 -66 34 -68 75c-27 -44 -70 -75 -115 -75c-80 0 -123 56 -123 126c0 99 87 186 182 186c59 0 85 -43 91 -43c10 0 29 37 49 37h16zM285 250c-21 24 -48 38 -85 38c-63 0 -124 -88 -124 -179c0 -58 27 -97 65 -97c48 0 98 43 118 105z" />
    <glyph glyph-name="acircumflex" unicode="&#xe2;" 
d="M112 403c23 28 54 56 98 87c16 12 22 18 28 18h4c6 0 14 -9 26 -23c32 -36 42 -50 64 -85c-2 -2 -14 -2 -20 -2c-22 32 -76 57 -82 57c-8 0 -68 -25 -100 -57c-6 0 -14 1 -18 5zM356 300l-35 -180c-4 -22 -10 -51 -10 -74c0 -22 6 -39 24 -39c44 0 85 73 110 123l21 41
l11 -6l-22 -41c-64 -124 -97 -130 -131 -130c-48 0 -66 34 -68 75c-27 -44 -70 -75 -115 -75c-80 0 -123 56 -123 126c0 99 87 186 182 186c59 0 85 -43 91 -43c10 0 29 37 49 37h16zM285 250c-21 24 -48 38 -85 38c-63 0 -124 -88 -124 -179c0 -58 27 -97 65 -97
c48 0 98 43 118 105z" />
    <glyph glyph-name="atilde" unicode="&#xe3;" 
d="M294 464c23 0 36 16 57 45l17 -8c-34 -66 -59 -89 -83 -89c-18 0 -102 30 -123 30c-23 0 -35 -15 -56 -44l-17 8c34 66 60 89 84 89c18 0 97 -31 121 -31zM356 300l-35 -180c-4 -22 -10 -51 -10 -74c0 -22 6 -39 24 -39c44 0 85 73 110 123l21 41l11 -6l-22 -41
c-64 -124 -97 -130 -131 -130c-48 0 -66 34 -68 75c-27 -44 -70 -75 -115 -75c-80 0 -123 56 -123 126c0 99 87 186 182 186c59 0 85 -43 91 -43c10 0 29 37 49 37h16zM285 250c-21 24 -48 38 -85 38c-63 0 -124 -88 -124 -179c0 -58 27 -97 65 -97c48 0 98 43 118 105z" />
    <glyph glyph-name="adieresis" unicode="&#xe4;" 
d="M167 486c17 0 31 -14 31 -30c0 -23 -24 -42 -44 -42c-17 0 -30 13 -30 29c0 20 20 43 43 43zM299 486c17 0 31 -14 31 -30c0 -23 -24 -42 -44 -42c-17 0 -30 13 -30 29c0 20 20 43 43 43zM356 300l-35 -180c-4 -22 -10 -51 -10 -74c0 -22 6 -39 24 -39
c44 0 85 73 110 123l21 41l11 -6l-22 -41c-64 -124 -97 -130 -131 -130c-48 0 -66 34 -68 75c-27 -44 -70 -75 -115 -75c-80 0 -123 56 -123 126c0 99 87 186 182 186c59 0 85 -43 91 -43c10 0 29 37 49 37h16zM285 250c-21 24 -48 38 -85 38c-63 0 -124 -88 -124 -179
c0 -58 27 -97 65 -97c48 0 98 43 118 105z" />
    <glyph glyph-name="aring" unicode="&#xe5;" 
d="M242 508c33 0 52 -25 52 -55c0 -44 -38 -79 -76 -79c-32 0 -53 25 -53 56c0 42 38 78 77 78zM219 392c27 0 50 30 50 61c0 20 -8 37 -29 37c-28 0 -50 -32 -50 -63c0 -19 9 -35 29 -35zM356 300l-35 -180c-4 -22 -10 -51 -10 -74c0 -22 6 -39 24 -39c44 0 85 73 110 123
l21 41l11 -6l-22 -41c-64 -124 -97 -130 -131 -130c-48 0 -66 34 -68 75c-27 -44 -70 -75 -115 -75c-80 0 -123 56 -123 126c0 99 87 186 182 186c59 0 85 -43 91 -43c10 0 29 37 49 37h16zM285 250c-21 24 -48 38 -85 38c-63 0 -124 -88 -124 -179c0 -58 27 -97 65 -97
c48 0 98 43 118 105z" />
    <glyph glyph-name="ae" unicode="&#xe6;" horiz-adv-x="545" 
d="M564 120c-44 -87 -110 -126 -195 -126c-61 0 -105 37 -117 89c-25 -51 -67 -89 -117 -89c-79 0 -117 54 -117 123c0 94 67 189 176 189c60 0 79 -31 85 -31c8 0 18 43 23 43h16c-4 -22 -8 -43 -10 -64c32 33 74 52 124 52c54 0 86 -25 86 -67c0 -39 -37 -115 -145 -115
c-24 0 -44 6 -61 14c-3 -16 -5 -30 -5 -44c0 -49 22 -82 62 -82c80 0 145 40 183 114l24 45l10 -6zM315 150c16 -8 35 -14 58 -14c64 0 97 69 97 103c0 36 -14 49 -38 49c-58 0 -94 -51 -117 -138zM247 117l26 144c-21 23 -52 27 -79 27c-79 0 -118 -111 -118 -184
c0 -55 22 -92 59 -92c48 0 92 43 112 105z" />
    <glyph glyph-name="ccedilla" unicode="&#xe7;" horiz-adv-x="312" 
d="M83 -222c40 6 117 48 117 100c0 27 -17 51 -37 51c-17 0 -36 -7 -45 -13l-14 10l20 68c-65 5 -108 55 -108 119c0 58 48 193 182 193c57 0 94 -22 94 -60c0 -22 -13 -38 -33 -38c-13 0 -23 10 -23 23c0 12 8 23 19 29c-7 25 -40 28 -57 28c-92 0 -124 -146 -124 -194
c0 -49 22 -82 62 -82c80 0 144 40 182 114l24 45l11 -6l-23 -45c-43 -84 -105 -124 -187 -126l-15 -54c10 4 23 7 35 7c35 0 73 -25 73 -69c0 -74 -113 -112 -150 -118z" />
    <glyph glyph-name="egrave" unicode="&#xe8;" horiz-adv-x="312" 
d="M260 400c-2 -2 -14 -2 -20 -2c-16 24 -35 34 -46 40c-30 18 -38 16 -38 35c0 7 1 16 2 30c0 4 4 5 12 5c6 0 13 -9 25 -23c32 -36 43 -50 65 -85zM330 120c-45 -89 -119 -126 -184 -126c-70 0 -130 44 -130 118c0 57 47 194 182 194c54 0 86 -25 86 -67
c0 -39 -36 -115 -144 -115c-24 0 -44 5 -61 13c-4 -18 -5 -33 -5 -42c0 -59 33 -83 77 -83c57 0 130 42 167 114l24 45l11 -6zM82 150c16 -8 35 -14 58 -14c64 0 96 69 96 103c0 36 -14 49 -38 49c-68 0 -102 -79 -116 -138z" />
    <glyph glyph-name="eacute" unicode="&#xe9;" horiz-adv-x="312" 
d="M172 403c23 28 54 56 98 87c15 11 22 18 28 18c7 0 12 -3 12 -7c-6 -54 -15 -49 -60 -65c-20 -7 -39 -16 -60 -38c-7 0 -14 1 -18 5zM330 120c-45 -89 -119 -126 -184 -126c-70 0 -130 44 -130 118c0 57 47 194 182 194c54 0 86 -25 86 -67c0 -39 -36 -115 -144 -115
c-24 0 -44 5 -61 13c-4 -18 -5 -33 -5 -42c0 -59 33 -83 77 -83c57 0 130 42 167 114l24 45l11 -6zM82 150c16 -8 35 -14 58 -14c64 0 96 69 96 103c0 36 -14 49 -38 49c-68 0 -102 -79 -116 -138z" />
    <glyph glyph-name="ecircumflex" unicode="&#xea;" horiz-adv-x="312" 
d="M108 403c23 28 54 56 98 87c16 12 22 18 28 18h4c6 0 14 -9 26 -23c32 -36 42 -50 64 -85c-2 -2 -14 -2 -20 -2c-22 32 -76 57 -82 57c-8 0 -68 -25 -100 -57c-6 0 -14 1 -18 5zM330 120c-45 -89 -119 -126 -184 -126c-70 0 -130 44 -130 118c0 57 47 194 182 194
c54 0 86 -25 86 -67c0 -39 -36 -115 -144 -115c-24 0 -44 5 -61 13c-4 -18 -5 -33 -5 -42c0 -59 33 -83 77 -83c57 0 130 42 167 114l24 45l11 -6zM82 150c16 -8 35 -14 58 -14c64 0 96 69 96 103c0 36 -14 49 -38 49c-68 0 -102 -79 -116 -138z" />
    <glyph glyph-name="edieresis" unicode="&#xeb;" horiz-adv-x="312" 
d="M165 486c17 0 31 -14 31 -30c0 -23 -24 -42 -44 -42c-17 0 -30 13 -30 29c0 20 20 43 43 43zM297 486c17 0 31 -14 31 -30c0 -23 -24 -42 -44 -42c-17 0 -30 13 -30 29c0 20 20 43 43 43zM330 120c-45 -89 -119 -126 -184 -126c-70 0 -130 44 -130 118
c0 57 47 194 182 194c54 0 86 -25 86 -67c0 -39 -36 -115 -144 -115c-24 0 -44 5 -61 13c-4 -18 -5 -33 -5 -42c0 -59 33 -83 77 -83c57 0 130 42 167 114l24 45l11 -6zM82 150c16 -8 35 -14 58 -14c64 0 96 69 96 103c0 36 -14 49 -38 49c-68 0 -102 -79 -116 -138z" />
    <glyph glyph-name="igrave" unicode="&#xec;" horiz-adv-x="188" 
d="M162 400c-2 -2 -14 -2 -20 -2c-16 24 -35 34 -46 40c-30 18 -38 16 -38 35c0 7 1 16 2 30c0 4 4 5 12 5c6 0 13 -9 25 -23c32 -36 43 -50 65 -85zM120 300c7 0 12 -3 12 -7c-23 -77 -53 -233 -53 -255c0 -14 4 -20 15 -20c16 0 57 21 95 96l29 57l11 -6l-29 -57
c-36 -69 -78 -114 -134 -114c-34 0 -43 26 -43 58c0 23 4 46 18 113l-11 6c22 44 40 90 44 117h-18l2 12h62z" />
    <glyph glyph-name="iacute" unicode="&#xed;" horiz-adv-x="188" 
d="M72 403c23 28 54 56 98 87c15 11 22 18 28 18c7 0 12 -3 12 -7c-6 -54 -15 -49 -60 -65c-20 -7 -39 -16 -60 -38c-7 0 -14 1 -18 5zM120 300c7 0 12 -3 12 -7c-23 -77 -53 -233 -53 -255c0 -14 4 -20 15 -20c16 0 57 21 95 96l29 57l11 -6l-29 -57
c-36 -69 -78 -114 -134 -114c-34 0 -43 26 -43 58c0 23 4 46 18 113l-11 6c22 44 40 90 44 117h-18l2 12h62z" />
    <glyph glyph-name="icircumflex" unicode="&#xee;" horiz-adv-x="188" 
d="M9 403c23 28 54 56 98 87c16 12 22 18 28 18h4c6 0 13 -9 25 -23c32 -36 43 -50 65 -85c-2 -2 -14 -2 -20 -2c-22 32 -76 57 -82 57c-8 0 -69 -25 -101 -57c-6 0 -13 1 -17 5zM120 300c7 0 12 -3 12 -7c-23 -77 -53 -233 -53 -255c0 -14 4 -20 15 -20c16 0 57 21 95 96
l29 57l11 -6l-29 -57c-36 -69 -78 -114 -134 -114c-34 0 -43 26 -43 58c0 23 4 46 18 113l-11 6c22 44 40 90 44 117h-18l2 12h62z" />
    <glyph glyph-name="idieresis" unicode="&#xef;" horiz-adv-x="188" 
d="M66 486c17 0 31 -14 31 -30c0 -23 -24 -42 -44 -42c-17 0 -30 13 -30 29c0 20 20 43 43 43zM198 486c17 0 31 -14 31 -30c0 -23 -24 -42 -44 -42c-17 0 -30 13 -30 29c0 20 20 43 43 43zM120 300c7 0 12 -3 12 -7c-23 -77 -53 -233 -53 -255c0 -14 4 -20 15 -20
c16 0 57 21 95 96l29 57l11 -6l-29 -57c-36 -69 -78 -114 -134 -114c-34 0 -43 26 -43 58c0 23 4 46 18 113l-11 6c22 44 40 90 44 117h-18l2 12h62z" />
    <glyph glyph-name="eth" unicode="&#xf0;" horiz-adv-x="362" 
d="M166 397l-11 13l50 41c-28 44 -63 80 -104 100l7 16c48 -23 88 -56 122 -94l44 36l12 -13l-45 -37c60 -74 93 -166 93 -248c0 -95 -46 -147 -56 -158c65 4 84 60 114 118l11 -6c-26 -52 -55 -124 -133 -124h-4c-37 -34 -82 -47 -118 -47c-74 0 -130 53 -130 127
c0 89 80 185 182 185c30 0 56 -19 71 -51c-6 62 -26 126 -57 181zM238 63c19 33 32 97 34 134c-1 36 -19 91 -72 91c-117 0 -126 -171 -126 -200c0 -47 19 -76 74 -76c37 0 62 13 79 34c-9 2 -12 6 -12 11s5 11 10 11c3 0 3 0 13 -5z" />
    <glyph glyph-name="ntilde" unicode="&#xf1;" horiz-adv-x="400" 
d="M306 464c23 0 36 16 57 45l17 -8c-34 -66 -59 -89 -83 -89c-18 0 -102 30 -123 30c-23 0 -35 -15 -56 -44l-17 8c34 66 60 89 84 89c18 0 97 -31 121 -31zM286 246c0 24 -5 42 -22 42c-37 0 -96 -35 -164 -130l-31 -158h-60l32 165l-11 6c22 44 40 90 44 117h-18l2 12h62
c7 0 12 -3 12 -7c-9 -29 -15 -52 -24 -94c59 73 114 107 156 107s78 -33 78 -88c0 -52 -34 -136 -34 -177c0 -16 4 -27 17 -27c19 0 32 13 76 100l29 57l11 -6l-28 -55c-45 -87 -60 -116 -117 -116c-37 0 -47 25 -47 55c0 55 37 129 37 197z" />
    <glyph glyph-name="ograve" unicode="&#xf2;" horiz-adv-x="362" 
d="M270 400c-2 -2 -14 -2 -20 -2c-16 24 -35 34 -46 40c-30 18 -38 16 -38 35c0 7 1 16 2 30c0 4 4 5 12 5c6 0 13 -9 25 -23c32 -36 43 -50 65 -85zM277 222c0 38 -16 66 -71 66c-115 0 -132 -152 -132 -200c0 -47 19 -76 74 -76c33 0 57 14 75 35c-6 2 -8 6 -8 10
c0 5 5 11 10 11c2 0 2 0 11 -4c38 59 41 147 41 158zM148 -6c-74 0 -130 53 -130 127c0 99 94 185 188 185c80 0 124 -57 124 -125c0 -46 -20 -93 -52 -128c66 4 84 60 114 118l11 -6c-26 -52 -55 -124 -133 -124h-5c-32 -29 -72 -47 -117 -47z" />
    <glyph glyph-name="oacute" unicode="&#xf3;" horiz-adv-x="362" 
d="M180 403c23 28 54 56 98 87c15 11 23 18 29 18c7 0 11 -3 11 -7c-6 -54 -14 -49 -59 -65c-20 -7 -40 -16 -61 -38c-7 0 -14 0 -18 5zM277 222c0 38 -16 66 -71 66c-115 0 -132 -152 -132 -200c0 -47 19 -76 74 -76c33 0 57 14 75 35c-6 2 -8 6 -8 10c0 5 5 11 10 11
c2 0 2 0 11 -4c38 59 41 147 41 158zM148 -6c-74 0 -130 53 -130 127c0 99 94 185 188 185c80 0 124 -57 124 -125c0 -46 -20 -93 -52 -128c66 4 84 60 114 118l11 -6c-26 -52 -55 -124 -133 -124h-5c-32 -29 -72 -47 -117 -47z" />
    <glyph glyph-name="ocircumflex" unicode="&#xf4;" horiz-adv-x="362" 
d="M117 403c23 28 54 56 98 87c16 12 22 18 28 18h4c6 0 13 -9 25 -23c32 -36 43 -50 65 -85c-2 -2 -14 -2 -20 -2c-22 32 -76 57 -82 57c-8 0 -69 -25 -101 -57c-6 0 -13 1 -17 5zM277 222c0 38 -16 66 -71 66c-115 0 -132 -152 -132 -200c0 -47 19 -76 74 -76
c33 0 57 14 75 35c-6 2 -8 6 -8 10c0 5 5 11 10 11c2 0 2 0 11 -4c38 59 41 147 41 158zM148 -6c-74 0 -130 53 -130 127c0 99 94 185 188 185c80 0 124 -57 124 -125c0 -46 -20 -93 -52 -128c66 4 84 60 114 118l11 -6c-26 -52 -55 -124 -133 -124h-5
c-32 -29 -72 -47 -117 -47z" />
    <glyph glyph-name="otilde" unicode="&#xf5;" horiz-adv-x="362" 
d="M300 463c23 0 36 16 57 45l17 -8c-34 -66 -59 -89 -83 -89c-18 0 -102 30 -123 30c-23 0 -35 -15 -56 -44l-17 8c34 66 60 89 84 89c18 0 97 -31 121 -31zM277 222c0 38 -16 66 -71 66c-115 0 -132 -152 -132 -200c0 -47 19 -76 74 -76c33 0 57 14 75 35c-6 2 -8 6 -8 10
c0 5 5 11 10 11c2 0 2 0 11 -4c38 59 41 147 41 158zM148 -6c-74 0 -130 53 -130 127c0 99 94 185 188 185c80 0 124 -57 124 -125c0 -46 -20 -93 -52 -128c66 4 84 60 114 118l11 -6c-26 -52 -55 -124 -133 -124h-5c-32 -29 -72 -47 -117 -47z" />
    <glyph glyph-name="odieresis" unicode="&#xf6;" horiz-adv-x="362" 
d="M174 486c17 0 31 -14 31 -30c0 -23 -24 -42 -44 -42c-17 0 -30 13 -30 29c0 20 20 43 43 43zM306 486c17 0 31 -14 31 -30c0 -23 -24 -42 -44 -42c-17 0 -30 13 -30 29c0 20 20 43 43 43zM277 222c0 38 -16 66 -71 66c-115 0 -132 -152 -132 -200c0 -47 19 -76 74 -76
c33 0 57 14 75 35c-6 2 -8 6 -8 10c0 5 5 11 10 11c2 0 2 0 11 -4c38 59 41 147 41 158zM148 -6c-74 0 -130 53 -130 127c0 99 94 185 188 185c80 0 124 -57 124 -125c0 -46 -20 -93 -52 -128c66 4 84 60 114 118l11 -6c-26 -52 -55 -124 -133 -124h-5
c-32 -29 -72 -47 -117 -47z" />
    <glyph glyph-name="divide" unicode="&#xf7;" horiz-adv-x="516" 
d="M312 384c14 0 24 -11 24 -25c0 -20 -20 -35 -36 -35c-14 0 -24 11 -24 25c0 20 20 35 36 35zM272 181c14 0 24 -11 24 -25c0 -20 -20 -35 -36 -35c-14 0 -24 11 -24 25c0 20 20 35 36 35zM463 242c-35 0 -307 -1 -349 -1l5 23h349z" />
    <glyph glyph-name="oslash" unicode="&#xf8;" horiz-adv-x="362" 
d="M39 -24l-13 12l33 38c-25 23 -41 56 -41 95c0 99 94 185 188 185c30 0 55 -8 75 -22l35 40l14 -12l-35 -40c23 -23 35 -56 35 -91c0 -46 -20 -93 -52 -128c66 4 84 60 114 118l11 -6c-26 -52 -55 -124 -133 -124h-5c-32 -29 -72 -47 -117 -47c-28 0 -54 7 -75 21zM89 34
c12 -14 30 -22 59 -22c33 0 57 14 75 35c-6 2 -8 6 -8 10c0 5 5 11 10 11c2 0 2 0 11 -4c38 59 41 147 41 158c0 9 -1 17 -3 25zM80 50l185 215c-10 14 -29 23 -59 23c-115 0 -132 -152 -132 -200c0 -14 2 -27 6 -38z" />
    <glyph glyph-name="ugrave" unicode="&#xf9;" horiz-adv-x="415" 
d="M282 400c-2 -2 -14 -2 -20 -2c-16 24 -35 34 -46 40c-30 18 -38 16 -38 35c0 7 1 16 2 30c0 4 4 5 12 5c6 0 13 -9 25 -23c32 -36 43 -50 65 -85zM372 300l-35 -180c-7 -36 -14 -64 -14 -83c0 -16 5 -25 19 -25c21 0 51 57 74 102l29 57l11 -6l-28 -55
c-48 -95 -61 -116 -117 -116c-34 0 -43 22 -43 53c0 23 5 51 10 77c-68 -92 -132 -130 -167 -130c-57 0 -80 37 -80 94c0 31 7 62 10 77l-11 6c22 44 40 90 44 117h-18l2 12h62c7 0 12 -3 12 -7c-13 -43 -15 -48 -35 -149c-6 -34 -11 -65 -11 -88c0 -26 7 -44 25 -44
c28 0 98 36 175 154c18 92 24 123 26 134h60z" />
    <glyph glyph-name="uacute" unicode="&#xfa;" horiz-adv-x="415" 
d="M194 403c23 28 54 56 98 87c15 11 22 18 28 18c7 0 12 -3 12 -7c-6 -54 -15 -49 -60 -65c-20 -7 -39 -16 -60 -38c-7 0 -14 1 -18 5zM372 300l-35 -180c-7 -36 -14 -64 -14 -83c0 -16 5 -25 19 -25c21 0 51 57 74 102l29 57l11 -6l-28 -55c-48 -95 -61 -116 -117 -116
c-34 0 -43 22 -43 53c0 23 5 51 10 77c-68 -92 -132 -130 -167 -130c-57 0 -80 37 -80 94c0 31 7 62 10 77l-11 6c22 44 40 90 44 117h-18l2 12h62c7 0 12 -3 12 -7c-13 -43 -15 -48 -35 -149c-6 -34 -11 -65 -11 -88c0 -26 7 -44 25 -44c28 0 98 36 175 154
c18 92 24 123 26 134h60z" />
    <glyph glyph-name="ucircumflex" unicode="&#xfb;" horiz-adv-x="415" 
d="M130 403c23 28 54 56 98 87c16 12 22 18 28 18h4c6 0 13 -9 25 -23c32 -36 43 -50 65 -85c-2 -2 -14 -2 -20 -2c-22 32 -76 57 -82 57c-8 0 -69 -25 -101 -57c-6 0 -13 1 -17 5zM372 300l-35 -180c-7 -36 -14 -64 -14 -83c0 -16 5 -25 19 -25c21 0 51 57 74 102l29 57
l11 -6l-28 -55c-48 -95 -61 -116 -117 -116c-34 0 -43 22 -43 53c0 23 5 51 10 77c-68 -92 -132 -130 -167 -130c-57 0 -80 37 -80 94c0 31 7 62 10 77l-11 6c22 44 40 90 44 117h-18l2 12h62c7 0 12 -3 12 -7c-13 -43 -15 -48 -35 -149c-6 -34 -11 -65 -11 -88
c0 -26 7 -44 25 -44c28 0 98 36 175 154c18 92 24 123 26 134h60z" />
    <glyph glyph-name="udieresis" unicode="&#xfc;" horiz-adv-x="415" 
d="M187 486c17 0 31 -14 31 -30c0 -23 -24 -42 -44 -42c-17 0 -30 13 -30 29c0 20 20 43 43 43zM319 486c17 0 31 -14 31 -30c0 -23 -24 -42 -44 -42c-17 0 -30 13 -30 29c0 20 20 43 43 43zM372 300l-35 -180c-7 -36 -14 -64 -14 -83c0 -16 5 -25 19 -25c21 0 51 57 74 102
l29 57l11 -6l-28 -55c-48 -95 -61 -116 -117 -116c-34 0 -43 22 -43 53c0 23 5 51 10 77c-68 -92 -132 -130 -167 -130c-57 0 -80 37 -80 94c0 31 7 62 10 77l-11 6c22 44 40 90 44 117h-18l2 12h62c7 0 12 -3 12 -7c-13 -43 -15 -48 -35 -149c-6 -34 -11 -65 -11 -88
c0 -26 7 -44 25 -44c28 0 98 36 175 154c18 92 24 123 26 134h60z" />
    <glyph glyph-name="yacute" unicode="&#xfd;" horiz-adv-x="408" 
d="M198 403c23 28 54 56 98 87c15 11 22 18 28 18c7 0 12 -3 12 -7c-6 -54 -15 -49 -60 -65c-20 -7 -39 -16 -60 -38c-7 0 -14 1 -18 5zM371 300c-3 -14 -7 -36 -35 -180l-16 -84c43 34 83 77 117 135l12 -6c-39 -65 -85 -113 -133 -149l-40 -210
c-20 -104 -126 -112 -154 -112c-110 0 -152 76 -152 108c0 96 139 106 280 187l25 131c-67 -90 -130 -126 -164 -126c-57 0 -80 37 -80 94c0 31 5 54 10 77l-11 6c22 44 40 90 44 117h-18l2 12h62c7 0 12 -3 12 -7c-13 -43 -15 -48 -35 -149c-6 -34 -11 -65 -11 -88
c0 -26 7 -44 25 -44c28 0 97 35 173 150l27 138h60zM247 -29c-133 -74 -259 -86 -259 -169c0 -20 32 -90 134 -90c24 0 76 3 89 72z" />
    <glyph glyph-name="thorn" unicode="&#xfe;" horiz-adv-x="373" 
d="M94 40c21 -26 37 -34 76 -34c25 0 47 15 65 40c-9 2 -12 7 -12 11c0 6 5 11 11 11c2 0 2 0 12 -5c13 21 35 78 35 128c0 56 -29 97 -77 97c-36 0 -66 -7 -92 -29c-3 -20 -21 -121 -37 -202c7 -3 13 -9 19 -17zM12 37c9 52 16 85 24 131l-6 3l11 21c24 132 65 355 65 371
v17c7 0 46 18 54 18h1c2 -4 2 -8 2 -11v-4c0 -15 -26 -170 -48 -302c25 16 54 25 89 25c91 0 136 -56 136 -127c0 -34 -15 -87 -47 -125c60 8 80 61 109 117l12 -6c-26 -51 -57 -122 -133 -124c-29 -29 -67 -47 -111 -47c-42 0 -62 9 -86 38c-4 5 -8 9 -12 12
c-23 -118 -68 -333 -96 -349c-2 0 -52 -1 -54 -1s-4 0 -8 4c-2 3 -5 9 -5 23c0 171 61 274 103 316zM-77 -294c19 14 58 181 85 312c-20 -25 -87 -139 -87 -297c0 -6 2 -13 2 -15z" />
    <glyph glyph-name="ydieresis" unicode="&#xff;" horiz-adv-x="408" 
d="M191 486c17 0 31 -14 31 -30c0 -23 -24 -42 -44 -42c-17 0 -30 13 -30 29c0 20 20 43 43 43zM323 486c17 0 31 -14 31 -30c0 -23 -24 -42 -44 -42c-17 0 -30 13 -30 29c0 20 20 43 43 43zM371 300c-3 -14 -7 -36 -35 -180l-16 -84c43 34 83 77 117 135l12 -6
c-39 -65 -85 -113 -133 -149l-40 -210c-20 -104 -126 -112 -154 -112c-110 0 -152 76 -152 108c0 96 139 106 280 187l25 131c-67 -90 -130 -126 -164 -126c-57 0 -80 37 -80 94c0 31 5 54 10 77l-11 6c22 44 40 90 44 117h-18l2 12h62c7 0 12 -3 12 -7
c-13 -43 -15 -48 -35 -149c-6 -34 -11 -65 -11 -88c0 -26 7 -44 25 -44c28 0 97 35 173 150l27 138h60zM247 -29c-133 -74 -259 -86 -259 -169c0 -20 32 -90 134 -90c24 0 76 3 89 72z" />
    <glyph glyph-name="Idotaccent" unicode="&#x130;" horiz-adv-x="444" 
d="M317 724c17 0 31 -14 31 -30c0 -15 -19 -42 -44 -42c-17 0 -30 13 -30 29c0 17 19 43 43 43zM316 47c72 0 127 64 158 124l11 -6c-26 -52 -91 -130 -169 -130c-7 0 -13 1 -20 2c-27 -29 -67 -43 -106 -43c-67 0 -132 40 -132 106c0 56 57 116 84 130l5 -10
c-26 -13 -77 -71 -77 -120c0 -47 48 -86 98 -86c27 0 54 11 74 38c-11 0 -12 7 -12 11c0 6 5 11 11 11c2 0 3 0 12 -5c7 14 13 30 17 50c44 223 52 349 75 392c-54 26 -115 63 -159 63c-50 0 -70 -14 -105 -83l-11 5c36 72 60 96 116 96c50 0 114 -40 169 -66
c38 54 77 79 105 79c23 0 38 -17 38 -50c0 -53 -40 -70 -72 -70c-9 0 -19 2 -30 5c-13 -36 -19 -129 -69 -390c-4 -20 -12 -38 -22 -52c4 -1 7 -1 11 -1zM403 506c8 -2 16 -3 23 -3c25 0 60 6 60 52c0 21 -5 35 -15 35c-13 0 -36 -24 -68 -84z" />
    <glyph glyph-name="OE" unicode="&#x152;" horiz-adv-x="793" 
d="M763 396c22 30 32 61 32 87c0 49 -37 81 -115 81c-80 0 -111 -59 -126 -139c-4 -20 -6 -39 -6 -55c0 -15 2 -27 6 -38c21 7 43 10 67 10c33 0 59 -15 59 -35c0 -24 -38 -37 -53 -37c-35 0 -66 11 -90 31c-65 -43 -68 -134 -68 -160c0 -85 66 -129 146 -129
c72 0 144 35 185 114l24 45l10 -6l-22 -45c-47 -91 -125 -126 -205 -126c-74 0 -142 32 -175 83c-52 -52 -105 -83 -190 -83c-136 0 -202 82 -202 212c0 196 116 376 318 376c91 0 138 -35 164 -89c35 52 96 89 158 89c85 0 127 -43 127 -99c0 -29 -12 -63 -35 -95zM520 318
c-18 22 -29 49 -29 81c0 14 1 13 1 18c0 84 -17 147 -134 147c-214 0 -263 -264 -263 -394c0 -97 37 -158 147 -158c79 0 132 39 173 103c-3 11 -5 23 -5 35c0 64 42 133 110 168zM562 314c12 -17 33 -26 65 -26c13 0 36 10 36 20c0 8 -20 16 -42 16c-23 0 -43 -4 -59 -10z
" />
    <glyph glyph-name="oe" unicode="&#x153;" horiz-adv-x="559" 
d="M576 120c-44 -87 -109 -126 -194 -126c-49 0 -86 23 -105 59c-34 -36 -80 -59 -129 -59c-74 0 -130 53 -130 127c0 100 94 185 188 185c52 0 89 -24 108 -60c32 38 76 60 130 60s87 -25 87 -67c0 -39 -37 -115 -145 -115c-24 0 -43 5 -60 13c-3 -16 -6 -30 -6 -44
c0 -49 22 -81 62 -81c80 0 145 40 183 114l23 45l12 -6zM277 222c0 38 -16 66 -71 66c-117 0 -132 -156 -132 -200c0 -47 19 -76 74 -76c122 0 129 197 129 210zM328 150c16 -8 35 -14 58 -14c64 0 97 69 97 103c0 36 -15 49 -39 49c-58 0 -93 -51 -116 -138z" />
    <glyph glyph-name="Rcommaaccent" unicode="&#x156;" horiz-adv-x="696" 
d="M342 -55c16 0 25 -12 25 -30c0 -37 -43 -69 -49 -96l-12 1c14 43 29 50 29 62c0 3 -3 3 -5 3c-16 0 -25 11 -25 24c0 21 21 36 37 36zM648 421c0 -78 -76 -169 -186 -169h-15c59 -98 95 -240 150 -240c50 0 67 37 105 111l24 48l11 -6l-24 -47
c-41 -80 -59 -124 -115 -124c-98 0 -168 186 -226 264c-4 4 -5 8 -5 12c0 7 9 27 43 32c7 -8 20 -32 52 -32c117 0 126 119 126 159c0 67 -51 129 -140 129c-32 0 -69 -7 -111 -26c27 -41 34 -84 34 -110c0 -7 0 -13 -1 -17c-5 -42 -5 -29 -58 -303
c-14 -73 -78 -108 -138 -108c-67 0 -132 40 -132 106c0 56 57 116 84 130l6 -10c-26 -13 -78 -71 -78 -120c0 -47 49 -86 99 -86c43 0 86 29 101 105l60 307c4 22 7 41 7 59c0 13 -2 25 -5 36c-77 -45 -116 -124 -116 -193c0 -39 12 -75 38 -100l-9 -8
c-27 27 -41 66 -41 108c0 74 42 158 124 207c-7 16 -19 30 -36 43l8 10c18 -14 33 -29 45 -44c46 23 89 32 128 32c113 0 191 -79 191 -155z" />
    <glyph glyph-name="rcommaaccent" unicode="&#x157;" horiz-adv-x="340" 
d="M109 -55c16 0 25 -12 25 -30c0 -37 -43 -69 -49 -96l-12 1c14 43 29 50 29 62c0 3 -3 3 -5 3c-16 0 -25 11 -25 24c0 21 21 36 37 36zM371 176l10 -6c-5 -10 -14 -34 -60 -34c-31 0 -57 27 -57 65c0 16 4 33 14 51c-39 -14 -94 -82 -138 -200l-10 -52h-60l35 183
c7 37 17 75 17 93c0 6 -1 10 -4 10c-18 0 -25 -20 -77 -121l-11 6c50 98 64 135 91 135c37 0 47 -35 47 -75c0 -43 -12 -92 -14 -103l-2 -8c30 65 74 135 146 186c15 11 40 18 46 18c7 0 12 -3 12 -7c-5 -46 -23 -68 -67 -71c-9 -16 -13 -32 -13 -46c0 -30 19 -51 45 -51
c38 0 46 19 50 27z" />
    <glyph glyph-name="Scaron" unicode="&#x160;" horiz-adv-x="468" 
d="M468 741c-23 -28 -54 -56 -98 -87c-17 -12 -22 -18 -28 -18h-4c-6 0 -14 9 -26 23c-32 36 -42 50 -64 85c2 2 14 2 20 2c23 -33 76 -57 82 -57c8 0 69 25 100 57c6 0 13 0 18 -5zM95 104c0 -39 19 -92 122 -92c47 0 97 18 127 54c-6 1 -12 5 -12 12c0 6 4 11 10 11
c3 0 4 -1 14 -6c9 16 14 34 14 55c0 128 -124 200 -132 316l-78 -154l-10 6l89 177c5 54 37 105 97 105l21 -34c-42 0 -72 -14 -88 -40c-2 -4 -13 -19 -13 -48c0 -101 174 -169 174 -328c0 -19 -5 -37 -14 -53c35 16 61 45 82 86l11 -6c-21 -41 -56 -79 -105 -97
c-38 -47 -113 -74 -187 -74c-108 0 -169 56 -169 110c0 10 0 22 6 32c6 12 17 16 27 16c13 0 24 -8 24 -17c0 -8 -10 -15 -10 -31z" />
    <glyph glyph-name="scaron" unicode="&#x161;" horiz-adv-x="318" 
d="M306 503c-23 -28 -54 -56 -98 -87c-17 -12 -22 -18 -28 -18h-4c-6 0 -14 9 -26 23c-32 36 -42 50 -64 85c2 2 14 2 20 2c23 -33 76 -57 82 -57c8 0 69 25 100 57c6 0 13 0 18 -5zM140 324l21 -34c-22 0 -57 0 -57 -32c0 -51 180 -102 180 -162c0 -10 -2 -20 -7 -30
c33 20 49 62 71 105l11 -6c-22 -42 -44 -97 -93 -117c-24 -30 -71 -54 -142 -54c-72 0 -144 41 -144 84c0 22 2 45 35 45c26 0 48 -15 48 -27c0 -2 -2 -5 -5 -5c-5 0 -14 5 -21 5c-6 0 -11 -4 -11 -18c0 -34 35 -66 98 -66c50 0 76 14 88 36c-6 1 -12 5 -12 12
c0 6 4 11 10 11c3 0 4 0 9 -3c1 4 1 8 1 13c0 64 -131 105 -132 176l-47 -92l-11 6l67 131c9 15 24 22 43 22z" />
    <glyph glyph-name="Ydieresis" unicode="&#x178;" horiz-adv-x="499" 
d="M267 724c17 0 31 -14 31 -30c0 -23 -24 -42 -44 -42c-17 0 -30 13 -30 29c0 20 20 43 43 43zM399 724c17 0 31 -14 31 -30c0 -23 -24 -42 -44 -42c-17 0 -30 13 -30 29c0 20 20 43 43 43zM366 -194c-20 -104 -122 -118 -152 -118c-110 0 -154 82 -154 114
c0 96 141 106 282 187l29 148c-71 -98 -150 -143 -197 -143c-74 0 -135 54 -135 168c0 142 82 245 82 350c0 38 -12 67 -44 92l7 10c71 -53 88 -124 88 -163c0 -64 -82 -184 -82 -320c0 -66 23 -119 94 -119c34 0 119 45 192 154l80 410h60l-105 -541c44 34 84 78 119 136
l10 -6c-39 -65 -85 -112 -133 -148zM339 -28c-134 -74 -261 -87 -261 -170c0 -20 34 -96 136 -96c24 0 76 17 88 78z" />
    <glyph glyph-name="Zcaron" unicode="&#x17d;" horiz-adv-x="518" 
d="M498 741c-23 -28 -54 -56 -98 -87c-17 -12 -22 -18 -28 -18h-4c-6 0 -14 9 -26 23c-32 36 -42 50 -64 85c2 2 14 2 20 2c23 -33 76 -57 82 -57c8 0 69 25 100 57c6 0 13 0 18 -5zM150 501c31 63 36 80 40 83c5 3 18 4 36 4c61 0 178 -14 236 -33c15 -5 26 -7 34 -7
c15 0 24 7 39 22l15 16l13 -13l-67 -75l-371 -420c58 -9 247 -37 319 -37c8 0 38 1 48 21l56 109l11 -6c-54 -104 -83 -176 -115 -176c-86 0 -272 39 -354 39c-11 0 -16 -6 -42 -34l-12 12l38 42l399 452c-66 15 -162 38 -229 38c-37 0 -66 -7 -75 -26l-7 -16z" />
    <glyph glyph-name="zcaron" unicode="&#x17e;" horiz-adv-x="336" 
d="M350 503c-23 -28 -54 -56 -98 -87c-17 -12 -22 -18 -28 -18h-4c-6 0 -14 9 -26 23c-32 36 -42 50 -64 85c2 2 14 2 20 2c23 -33 76 -57 82 -57c8 0 69 25 100 57c6 0 13 0 18 -5zM342 297l-248 -219c58 -2 90 -38 162 -38c8 0 44 1 61 35l49 96l11 -6l-55 -106
c-33 -65 -67 -65 -80 -65c-84 0 -101 39 -181 39c-11 0 -25 -7 -55 -37l-16 10c20 30 42 58 76 72l167 147c-66 15 -101 37 -124 37c-13 0 -23 -7 -32 -26l-36 -71l-11 6c71 140 74 140 89 140c31 0 87 -34 139 -34c21 0 41 6 58 21l14 13z" />
    <glyph glyph-name="uni01CE" unicode="&#x1ce;" 
d="M346 503c-23 -28 -54 -56 -98 -87c-17 -12 -22 -18 -28 -18h-4c-6 0 -14 9 -26 23c-32 36 -42 50 -64 85c2 2 14 2 20 2c23 -33 76 -57 82 -57c8 0 69 25 100 57c6 0 13 0 18 -5zM356 300l-35 -180c-4 -22 -10 -51 -10 -74c0 -22 6 -39 24 -39c44 0 85 73 110 123l21 41
l11 -6l-22 -41c-64 -124 -97 -130 -131 -130c-48 0 -66 34 -68 75c-27 -44 -70 -75 -115 -75c-80 0 -123 56 -123 126c0 99 87 186 182 186c59 0 85 -43 91 -43c10 0 29 37 49 37h16zM285 250c-21 24 -48 38 -85 38c-63 0 -124 -88 -124 -179c0 -58 27 -97 65 -97
c48 0 98 43 118 105z" />
    <glyph glyph-name="Scommaaccent" unicode="&#x218;" horiz-adv-x="468" 
d="M202 -55c16 0 25 -12 25 -30c0 -37 -43 -69 -49 -96l-12 1c14 43 29 50 29 62c0 3 -3 3 -5 3c-16 0 -25 11 -25 24c0 21 21 36 37 36zM95 104c0 -39 19 -92 122 -92c47 0 97 18 127 54c-6 1 -12 5 -12 12c0 6 4 11 10 11c3 0 4 -1 14 -6c9 16 14 34 14 55
c0 128 -124 200 -132 316l-78 -154l-10 6l89 177c5 54 37 105 97 105l21 -34c-42 0 -72 -14 -88 -40c-2 -4 -13 -19 -13 -48c0 -101 174 -169 174 -328c0 -19 -5 -37 -14 -53c35 16 61 45 82 86l11 -6c-21 -41 -56 -79 -105 -97c-38 -47 -113 -74 -187 -74
c-108 0 -169 56 -169 110c0 10 0 22 6 32c6 12 17 16 27 16c13 0 24 -8 24 -17c0 -8 -10 -15 -10 -31z" />
    <glyph glyph-name="circumflex" unicode="&#x2c6;" horiz-adv-x="292" 
d="M36 403c23 28 54 56 98 87c16 12 22 18 28 18h4c6 0 14 -9 26 -23c32 -36 42 -50 64 -85c-2 -2 -14 -2 -20 -2c-22 32 -76 57 -82 57c-8 0 -68 -25 -100 -57c-6 0 -14 1 -18 5z" />
    <glyph glyph-name="tilde" unicode="&#x2dc;" horiz-adv-x="371" 
d="M287 464c23 0 36 16 57 45l17 -8c-34 -66 -59 -89 -83 -89c-18 0 -102 30 -123 30c-23 0 -35 -15 -56 -44l-17 8c34 66 60 89 84 89c18 0 97 -31 121 -31z" />
    <glyph glyph-name="endash" unicode="&#x2013;" horiz-adv-x="540" 
d="M487 242c-35 0 -331 -1 -373 -1l5 23h373z" />
    <glyph glyph-name="emdash" unicode="&#x2014;" horiz-adv-x="828" 
d="M775 242c-35 0 -619 -1 -661 -1l5 23h661z" />
    <glyph glyph-name="quoteleft" unicode="&#x2018;" horiz-adv-x="188" 
d="M163 465c-3 -16 -20 -30 -36 -30s-25 12 -25 30c0 37 43 70 49 97l12 -2c-4 -31 -19 -47 -19 -59c0 -14 14 -24 19 -36z" />
    <glyph glyph-name="quoteright" unicode="&#x2019;" horiz-adv-x="194" 
d="M108 531c3 16 20 30 36 30s25 -12 25 -30c0 -37 -43 -70 -49 -97l-12 2c4 31 19 47 19 59c0 14 -14 24 -19 36z" />
    <glyph glyph-name="quotesinglbase" unicode="&#x201a;" horiz-adv-x="133" 
d="M36 45c3 16 20 30 36 30s25 -12 25 -30c0 -37 -43 -70 -49 -97l-12 2c4 31 19 47 19 59c0 14 -14 24 -19 36z" />
    <glyph glyph-name="quotedblleft" unicode="&#x201c;" horiz-adv-x="296" 
d="M271 465c-3 -16 -20 -30 -36 -30s-25 12 -25 30c0 37 43 70 49 97l12 -2c-4 -31 -19 -47 -19 -59c0 -14 14 -24 19 -36zM175 465c-3 -16 -20 -30 -36 -30s-25 12 -25 30c0 37 43 70 49 97l12 -2c-4 -31 -19 -47 -19 -59c0 -14 14 -24 19 -36z" />
    <glyph glyph-name="quotedblright" unicode="&#x201d;" horiz-adv-x="296" 
d="M210 531c3 16 20 30 36 30s25 -12 25 -30c0 -37 -43 -70 -49 -97l-12 2c4 31 19 47 19 59c0 14 -14 24 -19 36zM114 531c3 16 20 30 36 30s25 -12 25 -30c0 -37 -43 -70 -49 -97l-12 2c4 31 19 47 19 59c0 14 -14 24 -19 36z" />
    <glyph glyph-name="quotedblbase" unicode="&#x201e;" horiz-adv-x="229" 
d="M132 45c3 16 20 30 36 30s25 -12 25 -30c0 -37 -43 -70 -49 -97l-12 2c4 31 19 47 19 59c0 14 -14 24 -19 36zM36 45c3 16 20 30 36 30s25 -12 25 -30c0 -37 -43 -70 -49 -97l-12 2c4 31 19 47 19 59c0 14 -14 24 -19 36z" />
    <glyph glyph-name="dagger" unicode="&#x2020;" horiz-adv-x="492" 
d="M228 268l32 142l-147 -5l7 34l145 -5c13 68 21 135 25 154h34c-3 -17 -21 -85 -35 -154l148 5l-7 -34l-145 5l-23 -142l-56 -284h-34z" />
    <glyph glyph-name="daggerdbl" unicode="&#x2021;" horiz-adv-x="492" 
d="M228 268l32 142l-147 -5l7 34l145 -5c13 68 21 135 25 154h34c-3 -17 -21 -85 -35 -154l148 5l-7 -34l-145 5l-23 -142l-32 -142l147 5l-7 -34l-145 5c-13 -68 -21 -135 -25 -154h-34c3 17 21 85 35 154l-148 -5l7 34l145 -5z" />
    <glyph glyph-name="bullet" unicode="&#x2022;" horiz-adv-x="235" 
d="M166 306c28 0 49 -23 49 -50c0 -41 -42 -70 -73 -70c-28 0 -49 23 -49 50c0 41 42 70 73 70z" />
    <glyph glyph-name="ellipsis" unicode="&#x2026;" horiz-adv-x="428" 
d="M312 42c14 0 24 -11 24 -25c0 -20 -20 -35 -36 -35c-14 0 -24 11 -24 25c0 20 20 35 36 35zM192 42c14 0 24 -11 24 -25c0 -20 -20 -35 -36 -35c-14 0 -24 11 -24 25c0 20 20 35 36 35zM72 42c14 0 24 -11 24 -25c0 -20 -20 -35 -36 -35c-14 0 -24 11 -24 25
c0 20 20 35 36 35z" />
    <glyph glyph-name="perthousand" unicode="&#x2030;" horiz-adv-x="902" 
d="M483 432c-28 -16 -58 -28 -95 -28c-27 0 -56 4 -90 16c8 -15 12 -33 12 -52c0 -82 -68 -148 -139 -148c-60 0 -101 45 -101 103c0 76 71 145 143 145c24 0 44 -7 59 -18c45 -24 84 -34 116 -34c48 0 89 26 122 52c15 12 29 21 34 21c2 0 2 -1 2 -3c0 -5 -6 -16 -21 -37
l-366 -499l-18 14l343 467zM171 238c83 0 99 107 99 148c0 37 -13 64 -57 64c-82 0 -103 -98 -103 -142c0 -41 18 -70 61 -70zM789 242c61 0 97 -45 97 -101c0 -77 -66 -147 -139 -147c-60 0 -101 45 -101 103c0 76 71 145 143 145zM747 12c83 0 99 107 99 148
c0 37 -13 64 -57 64c-82 0 -103 -98 -103 -142c0 -41 18 -70 61 -70zM519 242c61 0 97 -45 97 -101c0 -77 -66 -147 -139 -147c-60 0 -101 45 -101 103c0 76 71 145 143 145zM477 12c83 0 99 107 99 148c0 37 -13 64 -57 64c-82 0 -103 -98 -103 -142c0 -41 18 -70 61 -70z
" />
    <glyph glyph-name="guilsinglleft" unicode="&#x2039;" horiz-adv-x="235" 
d="M183 282c5 -6 3 -12 3 -18c-36 -26 -82 -84 -83 -92c0 -6 27 -62 57 -89c0 -6 -2 -17 -4 -19c-31 26 -45 40 -76 76c-12 14 -20 22 -20 28c0 10 12 18 24 30c37 40 68 66 99 84z" />
    <glyph glyph-name="guilsinglright" unicode="&#x203a;" horiz-adv-x="234" 
d="M77 64c-5 6 -3 12 -3 18c36 26 82 84 83 92c0 6 -27 62 -57 89c0 6 2 17 4 19c31 -26 45 -40 76 -76c12 -14 19 -22 19 -28c0 -10 -13 -21 -22 -30c-37 -40 -69 -66 -100 -84z" />
    <glyph glyph-name="Euro" unicode="&#x20ac;" horiz-adv-x="530" 
d="M491 120c-47 -91 -126 -126 -201 -126c-155 0 -201 102 -201 205h-47l4 23h44c1 17 3 33 6 49h-42l4 23h43c34 155 109 250 270 250c96 0 133 -62 133 -105h-18c0 34 -29 87 -115 87c-147 0 -181 -89 -210 -232h163l-6 -22c-21 0 -95 -1 -161 -1c-3 -9 -6 -39 -7 -49h162
l-6 -22c-20 0 -92 -1 -157 -1c0 -159 85 -187 141 -187c68 0 141 31 185 117z" />
    <glyph glyph-name="Scedilla.ale" unicode="&#xe130;" horiz-adv-x="468" 
d="M412 223c11 -25 18 -53 18 -85c0 -83 -98 -142 -208 -144l-15 -54c10 4 23 7 35 7c35 0 73 -25 73 -69c0 -74 -113 -112 -150 -118l-3 18c40 6 117 48 117 100c0 27 -17 51 -37 51c-17 0 -36 -7 -45 -13l-14 10l20 68c-99 5 -155 58 -155 110c0 10 0 22 6 32
c6 12 17 16 27 16c13 0 24 -8 24 -17c0 -8 -10 -15 -10 -31c0 -39 19 -92 122 -92c79 0 153 49 153 126c0 28 -6 53 -15 77c-8 -5 -10 -6 -15 -6c-8 0 -10 8 -10 11c0 8 10 12 17 13c-36 76 -103 137 -109 221l-78 -154l-10 6l89 177c5 54 37 105 97 105l21 -34
c-42 0 -72 -14 -88 -40c-2 -4 -13 -19 -13 -48c0 -77 101 -135 149 -228c4 -1 8 -2 11 -3c35 -11 67 -40 94 -62l-8 -9c-27 21 -54 45 -83 57c-2 1 -5 1 -7 2z" />
    <glyph glyph-name="Scaron.ale" unicode="&#xe131;" horiz-adv-x="468" 
d="M412 223c11 -25 18 -53 18 -85c0 -83 -98 -142 -208 -144l-15 -54c10 4 23 7 35 7c35 0 73 -25 73 -69c0 -74 -113 -112 -150 -118l-3 18c40 6 117 48 117 100c0 27 -17 51 -37 51c-17 0 -36 -7 -45 -13l-14 10l20 68c-99 5 -155 58 -155 110c0 10 0 22 6 32
c6 12 17 16 27 16c13 0 24 -8 24 -17c0 -8 -10 -15 -10 -31c0 -39 19 -92 122 -92c79 0 153 49 153 126c0 28 -6 53 -15 77c-8 -5 -10 -6 -15 -6c-8 0 -10 8 -10 11c0 8 10 12 17 13c-36 76 -103 137 -109 221l-78 -154l-10 6l89 177c5 54 37 105 97 105l21 -34
c-42 0 -72 -14 -88 -40c-2 -4 -13 -19 -13 -48c0 -77 101 -135 149 -228c4 -1 8 -2 11 -3c35 -11 67 -40 94 -62l-8 -9c-27 21 -54 45 -83 57c-2 1 -5 1 -7 2zM468 741c-23 -28 -54 -56 -98 -87c-17 -12 -22 -18 -28 -18h-4c-6 0 -14 9 -26 23c-32 36 -42 50 -64 85
c2 2 14 2 20 2c23 -33 76 -57 82 -57c8 0 69 25 100 57c6 0 13 0 18 -5z" />
    <glyph glyph-name="Iacute.alk" unicode="&#xe143;" horiz-adv-x="401" 
d="M403 506c8 -2 16 -3 23 -3c25 0 60 6 60 52c0 21 -5 35 -15 35c-13 0 -36 -24 -68 -84zM257 76c6 12 10 27 13 43c44 223 52 349 75 392c-54 26 -115 63 -159 63c-50 0 -70 -14 -105 -83l-11 5c36 72 60 96 116 96c50 0 114 -40 169 -66c38 54 77 79 105 79
c23 0 38 -17 38 -50c0 -53 -40 -70 -72 -70c-9 0 -19 2 -30 5c-13 -36 -19 -129 -69 -390c-2 -10 -5 -19 -8 -27c49 14 88 52 112 98l11 -6c-21 -43 -69 -95 -129 -105c-25 -45 -75 -66 -123 -66c-67 0 -132 40 -132 106c0 56 57 116 84 130l5 -10c-26 -13 -77 -71 -77 -120
c0 -47 48 -86 98 -86c29 0 57 13 78 44c-10 1 -12 8 -12 12c0 6 5 11 11 11c2 0 8 -2 12 -5zM257 641c23 28 54 56 98 87c15 11 22 18 28 18c7 0 12 -3 12 -7c-6 -54 -15 -49 -60 -65c-20 -7 -39 -16 -60 -38c-7 0 -14 1 -18 5z" />
    <glyph glyph-name="Icircumflex.alk" unicode="&#xe144;" horiz-adv-x="401" 
d="M403 506c8 -2 16 -3 23 -3c25 0 60 6 60 52c0 21 -5 35 -15 35c-13 0 -36 -24 -68 -84zM257 76c6 12 10 27 13 43c44 223 52 349 75 392c-54 26 -115 63 -159 63c-50 0 -70 -14 -105 -83l-11 5c36 72 60 96 116 96c50 0 114 -40 169 -66c38 54 77 79 105 79
c23 0 38 -17 38 -50c0 -53 -40 -70 -72 -70c-9 0 -19 2 -30 5c-13 -36 -19 -129 -69 -390c-2 -10 -5 -19 -8 -27c49 14 88 52 112 98l11 -6c-21 -43 -69 -95 -129 -105c-25 -45 -75 -66 -123 -66c-67 0 -132 40 -132 106c0 56 57 116 84 130l5 -10c-26 -13 -77 -71 -77 -120
c0 -47 48 -86 98 -86c29 0 57 13 78 44c-10 1 -12 8 -12 12c0 6 5 11 11 11c2 0 8 -2 12 -5zM193 641c23 28 54 56 98 87c16 12 22 18 28 18h4c6 0 13 -9 25 -23c32 -36 43 -50 65 -85c-2 -2 -14 -2 -20 -2c-22 32 -76 57 -82 57c-8 0 -69 -25 -101 -57c-6 0 -13 1 -17 5z
" />
    <glyph glyph-name="Idieresis.alk" unicode="&#xe145;" horiz-adv-x="401" 
d="M403 506c8 -2 16 -3 23 -3c25 0 60 6 60 52c0 21 -5 35 -15 35c-13 0 -36 -24 -68 -84zM257 76c6 12 10 27 13 43c44 223 52 349 75 392c-54 26 -115 63 -159 63c-50 0 -70 -14 -105 -83l-11 5c36 72 60 96 116 96c50 0 114 -40 169 -66c38 54 77 79 105 79
c23 0 38 -17 38 -50c0 -53 -40 -70 -72 -70c-9 0 -19 2 -30 5c-13 -36 -19 -129 -69 -390c-2 -10 -5 -19 -8 -27c49 14 88 52 112 98l11 -6c-21 -43 -69 -95 -129 -105c-25 -45 -75 -66 -123 -66c-67 0 -132 40 -132 106c0 56 57 116 84 130l5 -10c-26 -13 -77 -71 -77 -120
c0 -47 48 -86 98 -86c29 0 57 13 78 44c-10 1 -12 8 -12 12c0 6 5 11 11 11c2 0 8 -2 12 -5zM249 724c17 0 31 -14 31 -30c0 -23 -24 -42 -44 -42c-17 0 -30 13 -30 29c0 20 20 43 43 43zM381 724c17 0 31 -14 31 -30c0 -23 -24 -42 -44 -42c-17 0 -30 13 -30 29
c0 20 20 43 43 43z" />
    <glyph glyph-name="Itilde.alk" unicode="&#xe146;" horiz-adv-x="401" 
d="M403 506c8 -2 16 -3 23 -3c25 0 60 6 60 52c0 21 -5 35 -15 35c-13 0 -36 -24 -68 -84zM257 76c6 12 10 27 13 43c44 223 52 349 75 392c-54 26 -115 63 -159 63c-50 0 -70 -14 -105 -83l-11 5c36 72 60 96 116 96c50 0 114 -40 169 -66c38 54 77 79 105 79
c23 0 38 -17 38 -50c0 -53 -40 -70 -72 -70c-9 0 -19 2 -30 5c-13 -36 -19 -129 -69 -390c-2 -10 -5 -19 -8 -27c49 14 88 52 112 98l11 -6c-21 -43 -69 -95 -129 -105c-25 -45 -75 -66 -123 -66c-67 0 -132 40 -132 106c0 56 57 116 84 130l5 -10c-26 -13 -77 -71 -77 -120
c0 -47 48 -86 98 -86c29 0 57 13 78 44c-10 1 -12 8 -12 12c0 6 5 11 11 11c2 0 8 -2 12 -5zM377 702c23 0 36 16 57 45l17 -8c-34 -66 -59 -89 -83 -89c-18 0 -102 30 -123 30c-23 0 -35 -15 -56 -44l-17 8c34 66 60 89 84 89c18 0 97 -31 121 -31z" />
    <glyph glyph-name="Imacron.alk" unicode="&#xe147;" horiz-adv-x="401" 
d="M403 506c8 -2 16 -3 23 -3c25 0 60 6 60 52c0 21 -5 35 -15 35c-13 0 -36 -24 -68 -84zM257 76c6 12 10 27 13 43c44 223 52 349 75 392c-54 26 -115 63 -159 63c-50 0 -70 -14 -105 -83l-11 5c36 72 60 96 116 96c50 0 114 -40 169 -66c38 54 77 79 105 79
c23 0 38 -17 38 -50c0 -53 -40 -70 -72 -70c-9 0 -19 2 -30 5c-13 -36 -19 -129 -69 -390c-2 -10 -5 -19 -8 -27c49 14 88 52 112 98l11 -6c-21 -43 -69 -95 -129 -105c-25 -45 -75 -66 -123 -66c-67 0 -132 40 -132 106c0 56 57 116 84 130l5 -10c-26 -13 -77 -71 -77 -120
c0 -47 48 -86 98 -86c29 0 57 13 78 44c-10 1 -12 8 -12 12c0 6 5 11 11 11c2 0 8 -2 12 -5zM402 672h-188l7 34h187z" />
    <glyph glyph-name="Ibreve.alk" unicode="&#xe148;" horiz-adv-x="401" 
d="M403 506c8 -2 16 -3 23 -3c25 0 60 6 60 52c0 21 -5 35 -15 35c-13 0 -36 -24 -68 -84zM257 76c6 12 10 27 13 43c44 223 52 349 75 392c-54 26 -115 63 -159 63c-50 0 -70 -14 -105 -83l-11 5c36 72 60 96 116 96c50 0 114 -40 169 -66c38 54 77 79 105 79
c23 0 38 -17 38 -50c0 -53 -40 -70 -72 -70c-9 0 -19 2 -30 5c-13 -36 -19 -129 -69 -390c-2 -10 -5 -19 -8 -27c49 14 88 52 112 98l11 -6c-21 -43 -69 -95 -129 -105c-25 -45 -75 -66 -123 -66c-67 0 -132 40 -132 106c0 56 57 116 84 130l5 -10c-26 -13 -77 -71 -77 -120
c0 -47 48 -86 98 -86c29 0 57 13 78 44c-10 1 -12 8 -12 12c0 6 5 11 11 11c2 0 8 -2 12 -5zM420 735c-37 -72 -88 -93 -118 -93c-37 0 -65 28 -90 96c2 2 14 2 20 2c16 -40 49 -50 80 -50c34 0 70 9 90 50c6 0 13 -1 18 -5z" />
  </font>
</defs>
</svg>
